<?xml version="1.0" encoding="UTF-8"?>
<!-- Created with Inkscape (http://www.inkscape.org/) -->
<svg width="134.65mm" height="134.22mm" version="1.1" viewBox="0 0 134.65 134.22" xml:space="preserve" xmlns="http://www.w3.org/2000/svg"><defs><clipPath id="clipPath7"><ellipse cx="81.64" cy="139.76" rx="141.51" ry="141.49" fill="none" stroke="#000" stroke-width="2.843" style="font-variation-settings:'wght' 300"/></clipPath></defs><g transform="matrix(1.01 0 0 1.0101 -60.137 -104.09)"><g transform="matrix(.46279 0 0 .46283 88.605 104.74)" clip-path="url(#clipPath7)"><g stroke-width=".35278"><path d="m-61.274 139.75v-142.87h285.75v285.75h-285.75v-142.88z" fill="#FFCCCC"/><path d="m-61.274 269.99c0.60229-14.118-0.2175-28.066 0-42.404 6.5979 4.585 20.145 6.322 12.7-5.6804-5.0697-5.0488 7.6366 13.224-4.9988 6.9712-9.7505 1.0639-7.6842-6.3146-7.7012-12.987-3.2779-10.563 6.7886-7.3232 13.496-4.894 9.6552-0.81159-11.225-4.7391-13.496-4.4217v-121.17c13.898 2.2607 17.11 18.46 20.652 29.671 3.5166 6.0043-3.2185 24.5 1.9623 8.492 0.17975-13.859-4.0199-28.897-10.86-41.467-4.4489-5.7087-14.741-5.1086-11.652-14.432 1.0327-3.8098-3.0065-13.068 3.5075-10.99 14.023 1.0565 27.819-5.588 41.817-1.7234-14.807-6.2125-30.674 3.7813-45.427-1.6019v-34.646c6.1175 4.0785 21.392 10.583 22.966 9.7137-4.0016-2.8056 14.892 0.84026 5.7722 1.4222 6.198 2.885 18.921-10.217 14.861-8.5292-10.461 12.099-29.187 5.7014-39.895-2.9025-6.3349-2.5498-2.7949-9.9576-3.7041-15.131-2.155-7.263 3.3108-6.9052 8.9125-6.4116h31.359c-4.29 6.5015-33.578 6.4532-13.237 6.7559 9.3233 1.4499 14.618-8.7532 23.622-6.7558 11.129 0.18716 22.39-0.50226 33.41 0.50403-3.8051 4.5252-20.256 14.651-15.746 14.842 8.0627-3.237 11.873-14.656 20.469-15.332 7.8387-0.48204 0.27577 4.7907 6.036-0.010711 6.881 0.082949 18.482-0.47701 18.097 1.5356 11.728-1.3456 28.83-4.5051 38.364 1.3701 6.3923 13.019-7.8926 25.252-18.73 29.87-8.557 2.3791-18.429 14.509-17.984 20.144 8.0417-10.005 23.586-15.099 33.981-16.876-11.586 6.7032-27.946 6.7925-32.974 21.787-5.9475 6.0912 7.751 21.224 3.5286 6.0428 0.0123-6.4871 11.748-17.463 2.8949-5.7423-2.245 9.7591 4.0215 26.069-5.4236 28.495 4.3302-3.5945 15.014-13.309 11.729-0.58931-5.8955 6.7254-21.715 7.1643-26.997 5.2283 10.393-5.4867 0.0035-4.3573-2.8868 1.3811 8.9184 3.6881 27.817 0.56938 32.64-6.2772-4.3309-8.2298 6.6314-29.13 10.629-25.401-7.3018 4.4151-13.474 23.038-8.2528 25.799 7.1035-8.296 2.73-0.10633 3.8559-1.0784 4.366-6.7008 12.805 2.6653 13.457-7.5147 6.4845-9.3863 18.863-4.3111 24.982-4.1362-2.3756-13.27-23.779 3.3645-27.351-3.453 7.1559-3.4607 14.161 0.1755 16.742-10.458 4.2285-7.1916 9.5804-3.9284 11.284-1.8712 3.1897-9.383-5.3834-20.469 5.9444-27.488 1.4993-12.337 11.273-21.628 17.675-30.596 28.573-0.059167 57.146-0.11833 85.719-0.1775v69.839c-7.113-1.6372-17.37-5.136-17.306 6.5782-1.098 2.3847 5.3404-13.294 12.363-5.1547 8.3887-2.3189 3.7701 7.8688 4.937 12.552 1.3946 10.348-3.7572 7.6703-4.9425-1.1561-0.30606-12.835-5.6792 10.108 3.4493 11.859 3.4726 2.7354 0.52494 9.436 1.4993 13.714-5.5335-0.23549-19.74-13.273-20.804-23.026-1.126 12.815 14.488 19.997 20.637 29.971 3.0966 11.186-13.598 7.1867-20.171 7.4565-17.186-2.057-34.62-10.238-51.839-3.5409-13.748 0.51116-22.115 17.433-34.221 13.472-3.924 0.76021-6.6748-5.9808-12.059-6.0133-10.906-10.162-5.9889 7.6348 0.35941 11.043 3.6528 5.0756 7.6904 21.197 6.3896 5.4734 5.7646-1.3614 1.1223-5.3921 7.894-1.0355 7.8129-2.9253 13.778-9.961 21.867-12.538 0.23012-12.609 22.648-11.132 32.626-11.867 15.967 2.9461 31.335 12.041 47.998 8.0803 3.0258 1.5035 0.48634 9.5071 1.3229 13.568v50.09c-5.9273-4e-3 -16.561 11.001-5.6988 2.6054 15.289-2.46-13.909 4.2912-11.61 13.615-2.4859 13.403-21.108 8.9952-8.9844-1.7837 4.8204-3.435 15.344-11.937 3.8921-4.3187-9.8318 2.0865-15.843 22.317-0.98719 16.901 6.2367-6.4318 14.334-24.201 23.388-19.322v88.691h-285.75c6.97e-4 -4.2096 0.0014-8.4193 0.0021-12.629zm256.29-5.9549c-13.434-5.4054-7.2841-22.258-8.5338-29.121 0.017 9.7689-8.578 21.143 4.7951 27.051 0.52192 0.13506 8.5664 7.0778 3.7387 2.0693zm-236.44-5.7583c11.917-6.3154-16.135 3.0351 0 6e-5zm-8.5648 0.0576c-3.0789-2.7287-6.7112 0.3214 0 0zm-6.35-1.2914c-5.2454-2.044-1.1055 1.9125 0 0zm25.976-4.9668c8.8684-12.046-3.5544-22.365-6.7165-33.2-6.4846-10.535 2.715 7.825 2.8127 11.782 9.0389 4.7674 5.2701 19.733 1.8951 22.974l2.0089-1.5564zm30.849-3.0589c1.2262-9.6985-3.9468-18.718 0.22696-28.134-5.4819 9.5766-1.6918 18.853-0.22696 28.134zm15.019-10.102c1.7988-6.7935 11.266-20.973 11.051-23.657-4.0986 4.5681-13.267 24.659-11.051 23.657zm-32.526-6.8308c1.5333-7.8782 3.1048-25.88-2.9815-26.758 2.2636 6.254 4.423 12.327 3.207 19.166 0.68762 1.3072-2.087 10.029-0.22551 7.5919zm201.35-3.8664c-3.585-6.5439 1.8635-30.005-3.1158-11.942-2.7664 2.8911 6.6375 21.378 3.1158 11.942zm-227.61-4.3706c0.9606-11.434-19.174-6.0029-15.472-3.1667 7.6855-2.3204 11.916-4.9917 15.472 3.1667zm44.615-8.1636c-4.5932-20.005 0.34237 12.49 0 0zm-43.733-1.8556c-3.204-2.6048 1.7684 2.4746 0 0zm219.39-2.3114c-0.34969-1.2975-0.72606 1.796 0 0zm-70.682-2.9844c5.6126-5.8204-4.3314-13.952 5.1848-19.183 0.58163-5.3001-8.101 16.825-16.596 8.9195-9.8625-5.2678-21.524 0.66493-31.831 0.40712-6.418 14.649 15.03 9.1117 21.444 3.8848-8.1543 2.6417-10.464 2.6345-1.1283-0.72743 4.6679-0.5835 21.414 7.5177 20.624 6.5714-11.317 0.73439-0.89258 2.2166 2.3018 0.12746zm74.899-5.388c1.7628-5.8335-5.3931 9.3348 0 0zm-30.24-4.3093c9.2048-13.76-8.8562 11.916 0 0zm-170.96 3.1775c-2.5249-7.6254-6.6373-12.15-1.7717-2.3725-0.33476-0.075 1.4282 5.3158 1.7717 2.3725zm203.55-2.6483c-0.4266-1.2898-0.87007 1.2567 0 0zm1.9723-2.3787c-1.5682-0.0422-0.8531 1.8267 0 0zm-189.16-1.7113c1.4365-5.0219-6.2233-22.022-2.9297-8.3118 0.68877-0.20169 3.8138 14.118 2.9297 8.3118zm199.91-5.5989c6.6233-2.5201 20.432-13.46 19.244-16.737-7.3808 7.5689-21.467 16.603-26.901 21.806 2.4236-1.8717 4.7669-3.9202 7.6575-5.0684zm-208.16 4.2898c-6.9585-8.6348-4.0477-2.2597 0 0zm167.92-1.7741c-1.6952-0.88075-2.1236 4.9066 0 0zm-181.67-1.288c-3.9362-6.3965-2.0659 0.61847 0 0zm183.62-1.5043c14.545-6.3733 12.45-24.065 20.6-35.326 1.8779-5.7184 4.0144-24.616 0.19068-8.3598 1.4316 8.3681-9.6207 21.753-13.019 8.9355-3.6257 4.1972-9.5774 14.639 1.1725 7.735 10.001 6.2955-6.9042 26.076-8.945 27.016zm-176.04-2.3788c-3.3591-4.6037-7.4682-22.819-4.3109-6.7058 1.3174 1.539 1.5456 7.6974 4.3109 6.7058zm-16.627-5.3828c-7.4246-11.97-11.081-27.668-9.332-41.118-6.109 13.961 0.79185 30.106 9.4286 41.558l-0.09647-0.44098zm183.22-2.9986c5.5517-4.51 1.7606-16.348 0.0308-4.5398 0.26036 0.37035-2.2155 9.1192-0.0308 4.5398zm0.82777-5.0271c1.28-6.2884 0.5135 1.7583 0 0zm0.18402-2.4082c0.38818-4.1632 1.8173 0.37535 0 0zm-157.56 7.2589c-0.78441-7.7067-0.5752-21.022-1.4677-7.4782 0.46331 1.4637-0.37656 8.5228 1.4677 7.4782zm96.667-1.0257c5.3637-0.88455 24.717-0.0345 9.6223-1.6529-9.8709 0.12045-25.895 1.0115-32.576 2.6052 7.6592-0.0776 15.324-0.2089 22.953-0.95231zm-31.75-3.8225c10.673-9.1765 23.804-8.3356 35.678-11.02-3.1828-12.669-5.9267 10.887-11.183-1.8983 1.3065-5.3567-17.63 13.286-11.85-0.56946 1.6961 0.96471-17.339 17.216-12.645 13.488zm133.9-10.057c3.6171-5.9303-0.23534-19.153-0.0966-21.479 3.1147 10.557-3.0543 25.849-7.4978 30.294 2.8244-2.6403 5.9243-5.2429 7.5944-8.8152zm-79.231 8.1344c-10.316-7.7682-10.636-4.7888 0 0zm-134.99-1.6962c-0.0034-9.1376 4.5466-23.014 5.8825-27.957-5.5314 7.6299-9.3915 21.583-5.8825 27.957zm176.38-0.26459c-0.25009-2.4554-0.80497 2.4566 0 0zm66.357-3.9348c2.207-10.445-3.5056 8.8574 0 0zm-210.81 0.53115c-5.5602-2.4874-8.0255-25.25-6.8193-8.4928 0.26549 1.9018 4.1086 11.758 6.8193 8.4928zm46.991-4.0046c2.4639-4.4209 18.252-19.602 5.412-10.246-2.3737 0.95081-8.8728 15.86-5.412 10.246zm43.586 2.1497c-7.3667-3.8798-1.8916 1.0836 0 0zm-131.78-0.84038c-4.7566-6.1566-3.5675-32.477-6.0163-12.866 1.1963 3.6106 3.9098 11.51 6.0163 12.866zm252.82-3.7774c-0.57476-3.8364-0.7642 4.3295 0 0zm-105.74-1.1479c-1.5939-7.2268-12.017-16.967-3.2056-4.5672 0.72176 0.10387 5.2414 10.619 3.2056 4.5672zm-146.31-2.2708c-5.2177-12.202 7.3955-20.647 7.9306-31.46 9.1053-9.8225-6.1529-21.865-3.8269-33.793-0.68608-6.6558-12.825-14.816-3.5485-4.58 5.6747 13.416 4.9499 29.267 2.211 43.386-3.0225 10.315 5.7704-16.733 6.0684-14.376 4.3396 14.481-16.477 21.758-10.74 36.604-0.21428 1.4514 3.7127 12.249 1.9057 4.2184zm45.988 2.3465c-0.35012-10.098-5.4158-2.4538 0 0zm207.03-5.8435c3.28-7.5784-6.5024-22.983-1.3609-7.2817-0.0684 1.9485-0.63786 17.79 1.3609 7.2817zm-159.25-11.278c5.2913-3.5327 15.182-26.269 4.3254-14.572-3.2034 9.8931-26.164 9.5628-26.805 7.7614 7.2338-0.36018-10.143-5.4629-8.5662-11.727-5.5995-12.803-21.64-17.481-25.11-31.304-0.66639-8.139-4.1281-29.51-8.5896-28.533 10.745 10.091-0.65646 27.866 11.339 37.885 14.03 7.7986 15.775 22.405 20.002 36.106 4.6071 7.1463 18.271 10.705 22.479 3.5632-6.121 11.305 12.452-13.9 12.905-7.4223-3.158 4.1061-13.791 10.178-3.8035 5.6918-1.2009 6.0959-3.967 12.374 1.8244 2.5504zm-31.188-13.938c-3.5659-3.6228-7.2836-14.608-0.9536-4.592 0.33855 0.50033 5.0776 8.266 0.9536 4.592zm75.537 19.364c-0.60487-0.60652 0.3046 1.9722 0 0zm17.951-6.4643c11.842-8.9957-1.829 1.6922-7.1964-0.81192 1.995 1.6043 4.8787 1.5249 7.1964 0.81192zm-138.05-3.1838c2.6055-7.2586-5.434 6.9356 0 0zm-28.232 0.27741c3.6921-8.806-3.4067 1.8778 0 0zm131.41-1.0318c3.0751-5.332-0.26449-13.094 1.126-19.165 8.6673 4.6052 11.261-3.7885 0.72118-2.8344-1.4484-8.0531 3.9537-9.0879-2.8745-15.334 5.3282-10.954-9.6298-1.2509-7.3069 5.1713-1.2739 7.4958-0.23908 22.024 1.3945 6.7278 0.52244-8.7584 3.9062-7.4527 0.82274 0.0601-0.73756 6.6876-8.8736 31.66 6.117 25.374zm92.706-3.7998c-0.784-14.65-2.9058 1.7456-0.21918 2.5648l0.21921-2.5648zm35.316 2.4386c-3.7266-2.5471 0.97796 3.7492 0 0zm-227.71-3.6032c1.6781-14.191 2.585-29.534-5.3406-42.237-1.8199-4.4195-19.445-17.687-7.9499-7.3284 9.4615 10.143 15.364 23.915 12.824 37.898 1.0529 1.3144-4.4538 18.819 0.46618 11.667zm225.59 0.68242c-1.9186-1.3161 1.5644 3.1745 0 0zm-1.0037-1.5434c-1.2819-1.8507-1.1861 1.5698 0 0zm-206.73-2.1718c1.3978-8.4177-5.0648-26.7-8.6168-27.495 6.4271 6.5209 5.4768 26.72 8.6168 27.495zm63.228-7.3719c-1.3135-0.18256-1.6366 2.3349 0 0zm101.95-20.031c-5.4328-6.0103-10.258-25.888-10.014-26.493 0.1308 9.3188 3.6212 20.796 10.014 26.493zm-143.2-2.3359c4.7105-2.1205 11.423-10.744 2.5747-4.1752-0.55856-0.28533-6.3369 7.462-2.5747 4.1752zm-31.791-2.3514c-4.7968-7.9721-2.0584 1.3078 0 0zm-3.1603-6.3966c-0.85285-2.408-1.2286 1.8123 0 0zm129.46-1.1673c-7.0325-4.8589-10.587-0.66508 0 0zm59.978-1.0154c-7.7368-8.8158 5.7866-27.097 4.2113-30.875-3.8999 8.8047-14.778 23.114-4.2113 30.875zm-75.202-1.8885c4.4115-2.4634-23.375-1.4998-5.4811-2.4649 8.2446-0.81066-12.232 1.2783-8.2743-6.4827-13.883 7.0521 7.5026 12.57 13.755 8.9477zm-59.559-2.1232c2.2916-1.1522-4.4081 0.83465 0 0zm3.175 0.04892c-2.329-0.59693-2.3334 1.0388 0 0zm152.68-4.3528c2.3662-7.3044-2.8706 2.1566 0 0zm-234.53-3.0788c-2.982-4.2441-4.1435 0.31197 0 0zm-4.5861-3.377c-3.6219-1.9083 0.46368 2.1471 0 0zm-3.8806-2.3037c-6.229-3.9728-15.249-6.8086-22.612-7.6579 8.0145 0.3584 14.991 7.8884 22.612 7.6579zm201.51-5.5461c1.9813-5.0241 11.634-18.612 2.6556-7.6671-1.0569 0.51376-6.0022 14.078-2.6556 7.6671zm-14.036-8.7308c2.4183-10.023 13.816-18.208 17.832-24.806-10.988 4.8669-21.488 24.706-19.545 29.921l0.6937-2.4485 1.0196-2.6668zm-155.87 2.8897c-12.708-9.0945-3.7533 0.58515 0 0zm180.06-7.8994c6.0437-2.8563-4.8657 1.2889 0 0zm5.1014-2.0894c10.307-10.472-5.3076 2.206 0 0zm5.4819-3.6901c-1.2872-2.1633-1.1924 2.4851 0 0zm0.79375-7.1649c2.8571-10.583-14.803 4.2796-3.1163-1.978 4.8035-0.58079 0.18633 11.126 3.1163 1.978zm-14.545-8.5128c0.72683-2.6758-2.5545 1.8046 0-5e-5zm-114.85-1.1317c2.6293-6.1311-4.3116 3.8769 0 0zm-70.132-1.2267c2.0323-6.5423 20.257-9.8598 17.275-10.769-7.1939 3.7291-16.451 1.9301-19.014 11.901l1.7392-1.1322zm82.933-0.47956c4.2794-2.5141-7.5773 2.5736 0 0zm105.19-0.0071c3.8455-4.2929-4.9721 3.0286 0 0zm-99.888-1.359c8.4094-2.5712-10.523 2.2227 0 0zm-2.8392-0.76308c-1.2987-0.40012-0.64809 0.61438 0 0zm7.3275-0.13964c1.7634-1.1569-3.3778 1.1169 0 0zm102.31-1.1571c6.0568-2.1653 21.492-6.7316 6.2991-4.0579-2.54-0.09688-17.911 7.8804-6.2991 4.0579zm-106.63 0.92342c-1.9427-0.57259-0.35257 0.61745 0 0zm51.077-1.6393c2.7055-8.0749-2.1078 0.92044 0 0zm2.6055-7.3875c10.001-11.373-0.69825-4.332 0 0zm-175.37 76.2c-4.9085-7.6451 5.0497 2.4914 6e-5 -5e-5zm-8.3981-8.0668c-20.899-14.007 15.608 1.6299 0 0zm121.9-35.689c3.0026-4.2558 2.4524 1.0655 0 0zm3.3579-1.9844c11.459-4.1829 23.79-7.3009 33.416-15.333-4.5691-3.9995 9.4493-8.3732 5.4205-10.297-9.3614 5.5681 9.564-16.901-1.1083-4.8675-4.0559 6.2727-19.342 11.352-22.603 8.3906 10.207-6.5951 7.4364-21.422 7.3751-27.315 6.7934 1.4154 19.655-4.5032 19.963 5.8209-1.7433-3.3573 1.6306-7.8094 8.1907-5.8209 6.2686-2.4848 6.7994 4.8449 3.4812 8.3232-5.1339 12.176 2.819-8.7734 6.801-8.3232 15.052-1.7528-5.3207 13.522-7.6728 18.688-3.6485 6.8765-6.2194 20.863-11.543 13.036-11.843 10.06-26.997 14.875-41.932 17.925l0.21056-0.2267z" fill="#F0D0AA"/><path d="m-61.274 276.14c-3.0789-9.719 9.3828-10.804 16.317-10.518 10.049 0.035 16.305-10.997 20.725-18.76 6.1334-15.669 2.6817-33.583-1.7652-48.727 1.2806 3.0424-5.576-6.8822-5.4185-6.2126 1.2208-1.4731-3.4671-2.6394-3.5319-4.7544-7.7963-8.4855-15.441-19.248-13.501-31.888-0.29822-13.482 8.1101-25.078 8.6029-38.406 0.80884 6.6479-3.2912 22.469 1.3084 6.7731-1.1457-14.242-2.909-30.863-9.8111-43.994-3.8609-3.5351-21.419-12.057-7.3331-11.169 14.137 3.7636 19.498 19.63 17.156 32.886 0.35472 13.164 2.6104-11.788 0.73258-16.408 0.91116-10.596 12.251 9.8678 9.4784 15.389 0.62692 8.7628 3.4959 31.054-5.0412 31.84 0.53906-5.3648 0.15252-19.259-0.17359-5.9823-2.7572 11.227-8.0929 22.512-2.2486 33.504 3.4978 17.487 20.189 27.693 25.731 44.2-2.3501 9.5106-4.1762 19.489-3.4249 29.635 1.6342-4.9665 1.4327-25.615 6.2598-20.922 1.5112 14.18-7.4474 26.334-14.587 37.537 1.2704 9.764-10.777 12.966-13.99 18.302 15.341-1.6082 12.781-20.74 22.846-28.826 4.4296-3.9017 8.5442-20.969 6.8496-5.7448 0.52851 9.1942-9.3491 22.793-8.2218 27.345 8.4009-10.133 9.3593-24.955 10.604-37.838-0.80155-6.5908 4.0801-17.34-0.13079-17.682-2.8641-6.8892-15.808-19.528-17.569-32.399-2.1329-14.916 2.6552-29.778 11.219-41.891 8.4271-14.573 0.9725 19.193-4.1618 23.137-4.2705 5.4587-5.6091 22.867-3.8031 22.835-3.2031-19.571 15.98-34.009 13.161-53.511-1.3633-13.35-2.211-27.744-12.031-38.128-4.735-8.1315-14.053-20.573-18.964-23.453 16.266 1.9565 20.607 19.499 28.145 29.845-1.6599-16.449-15.96-32.173-33.095-32.272-6.9252-0.3729-15.107-3.4419-3.0178-3.804 13.029-6.4419 23.159 5.1217 33.322 11.411 6.2832 10.367 5.7114 23.303 16.466 31.363 5.5212 6.0443 3.2853 23.367 5.3845 24.669 1.5404-4.3842-3.4315-21.435-0.46869-19.553 16.962 6.3115 9.9789 26.379 20.399 37.028 4.3571 7.7688 20.827 1.4468 19.071 1.0778-3.7752 7.5212 8.0965-8.4853 11.974-8.8809 7.4134-3.6859-16.634 14.723-2.2714 6.0598-1.1653 5.2273-4.5665 13.301 1.3585 3.7378 3.561-4.4788 15.677-20.877 7.648-20.314-4.8134 11.514-20.982 16.99-30.44 9.6851-8.4593-7.4535-12.445-19.63-22.412-26.158-9.3632-5-5.49-18.36-10.985-26.517-1.5083-6.0702-9.2004-22.287 0.41312-9.1573 4.6647 3.5212 5.0576 20.162 6.6143 19.52 1.3457-15.124-6.9032-33.121-23.647-34.966-12.009-5.9466-25.587-3.3238-38.481-5.4215-7.6073 4.2034-15.314-11.859-9.5447-9.7226 10.775 12.312 28.699 9.3973 42.977 9.1605 16.176 0.15954 25.929 11.919 29.54 26.798 3.552 8.1318-0.79565-12.609-2.576-15.356-10.105-14.19 14.205-14.698 14.946-27.178 0.22599-3.3601-13.564 8.561-19.333 10.276-14.14 6.7873-20.938-8.0578-33.826-1.0758-10.781 2.2954-26.485-1.2847-33.444-8.5212-1.5757-5.873 2.0935-8.7331 3.3635-6.8773-11.103-15.243 10.023-0.16959 16.323 0.97032 7.8179 7.2423 27.886-4.5276 23.845-7.1829-9.4477 11.661-27.254 6.2892-37.687-1.2608-8.2504-5.6688-5.3386-5.9743 2.4639-2.3553 6.6684 2.312 6.9686-3.4556 16.946 0.76244 6.2141-2.6542 23.571 1.8763 8.1899 3.4986-6.3324 0.2331-19.007-1.3178-5.7117 1.375 14.907 4.0422 21.622-13.562 34.208-15.897 8.8475-13.737-7.7343 7.2097-13.963 6.2075-11 8.8871-27.307 0.70027-40.629 1.9326-8.913-0.90819-7.5068-8.7659-7.3488-15.034 0.68339-10.104 13.884 5.285 20.14 2.4221-4.4592 2.484 18.195 2.0966 22.38-4.2801 4.9502-2.8118 11.547-0.59985 17.17-1.3559 6.2517 1.5894 18.277-1.4552 20.921 0.77127-12.485 2.6726-14.818 21.993-28.081 18.542-9.3012 10.566-21.646 20.828-36.722 12.83 6.0797 3.6588 22.346 6.2793 29.362-2.5753 4.3022-12.303 18.271-6.6827 24.127-18.097-2.4443 9.9061-11.08 10.953-18.537 11.951-3.5576 4.3759-9.903 13.95-1.0268 4.6254 6.6278-6.499 16.669-5.045 21.408-14.947 5.8245-1.1162 15.772-18.938 17.882-10.812-8.1039 12.715-16.234 26.822-29.556 34.639-7.0256 2.5128-16.13 7.9279-3.0219 4.3134 13.84-3.8273 17.914-19.109 29.274-25.607 6.4829-3.1312 16.945-6.1692 3.8869-3.6903 10.41-11.016 37.805-10.363 31.003 10.231-11.311-13.501 4.8363 5.4469-4.9255 7.0129 0.49147 7.6799 12.316-12.573 19.575-13.767-1.7271-4.4638-1.2459-18.499 7.0419-15.513 9.2111-3.067 13.11 8.3605 9.1089 15.498-0.32881 9.7783-21.227 15.976-22.958 10.918 2.9281-5.0877 11.527-10.185 1.4706-4.5615-5.3932 2.2237-21.424 19.061-6.2615 11.406 6.8846-2.5067 21.968-5.7982 7.2643 0.02339-8.3655 1.9057-19.466 18.865-16.242 19.771 6.6873-9.7907 25.559-15.622 31.885-16.263-10.85 5.7579-25.554 6.5467-30.508 20.009-7.7366 6.5231 7.9937 24.072 3.3418 7.141 0.42213-7.1322 11.064-17.016 1.9481-5.1422-3.5217 10.037 8.1161 23.286-6.6507 28.148 5.6933-0.74359 16.704-15.016 13.126-0.44611-5.2136 5.2077-25.458 8.1505-25.27 3.2709 12.48-6.243-13.575 2.5993-0.12811 5.2604 11.061-2.7597 34.842 0.78616 28.187-16.905 0.03289-5.7789 7.7044-20.35 11.402-17.629-7.5048 3.6938-14.959 26.43-7.6448 25.486 10.129-10.65-5.0313 8.0892 3.1579-0.26752 4.2133-7.3668 11.736 3.5375 14.302-6.5844 2.959-5.159 14.883-9.4014 16.409-5.2698 0.22396 6.2249 15.124-2.9251 3.5239-4.7592-5.7595-3.5044-23.166 6.8497-21.462 1.4589 5.3611-3.781 12.619 0.74698 14.973-10.142 3.6603-5.4476 9.3741-5.4965 10.375-1.4932 5.6788-8.8336-6.1303-21.286 7.2152-28.48 1.8876-12.392 11.384-26.425 21.525-30.167-12.18 13.178-16.886 32.413-11.725 49.682 2.811 10.958 5.5917 7.2054 2.2313-1.681-4.1291-14.077 0.93812-29.496 12.258-38.708 3.7459-8.7487 14.845-0.24719 19.324-9.572 2.5553 0.60749 14.378-1.3583 9.6871 1.2612-4.8392 4.7396-17.566 9.937-19.18 11.13 13.049 0.64373 19.467-15.683 32.68-12.289 13.235-1.3833-5.6972 6.4105-8.8934 9.5959-10.798 6.6046-19.198 16.594-25.646 27.441-3.2842 7.3973-10.435 25.135-6.2804 29.164 2.1043-6.9857 9.826-24.621 4.9906-7.638-4.51 4.9013-8.3595 25.617-0.49256 15.047 0.92725-6.0019 3.213 4.3748 3.2461-5.3988 1.4965-11.527 15.017-27.15 23.028-26.38 8.1515-9.5161 4.1457 11.526 6.6547 0.40068 2.8061 12.32-19.941 16.236-16.961 23.238 8.56-9.5334 23.509-14.731 20.539-31.217 0.97618-13.611 25.291 2.383 19.695-3.071-6.4768-1.9298-22.478-5.9829-7.2548-6.0587 4.1166-2.607 16.834 7.7704 11.45 0.5607-16.269-9.0844-38.006-2.2138-49.648 11.627-2.4211 3.5589-9.3887 10.594-3.6744 2.2642-5.9094 7.6655-3.7365 2.3948 0.40787-1.8597 1.2758-2.6226 12.077-14.801 1.9432-4.2852-4.1714 6.1969-12.214 14.855-5.3006 3.1059 8.7975-16.221 24.234-31.467 43.806-31.93 9.8062 1.457 29.361-12.762 24.475 6.0006 2.9969 5.632-5.7286 12.313-1.1879 14.516 2.8252 3.9809 1.3324 14.952-4.4345 5.4519-6.3623-0.44715 10.248 7.1876 5.5743 13.463-3.5894 3.1628-16.465-17.352-10.352-3.0013 6.9295 1.884 15.411 11.2 8.2057 15.225-12-2.6198-29.227-9.953-33.791 7.5486-2.3134 6.8311-4.8456 12.926 0.50387 4.0041-0.62266-8.1486 12.51-15.083 6.7146-2.2236-5.6828 4.5508-9.4634 16.437-3.7672 19.766 7.8041-10.965-3.011 6.2587 3.8689 9.6762 1.7692 10.193 22.363 12.872 20.236 19.013-0.64138 2.5017-2.3808 5.4746 2.1687 8.1789-10.099 1.1028-21.73 1.7593-27.455-8.4718-3.4092-2.8719-12.709-11.66-5.4075-2.0236 3.7715 3.2226 16.923 12.426 3.4309 7.9216-6.8721-0.28112-13.091-20.233-8.4743-4.3717 3.0273 7.1406-12.354-2.4269-13.196-1.6258-3.8509 6.3906-20.584 3.7519-27.948 9.949-7.0196 3.7-13.294 12.801-19.793 7.883-5.685 4.5115-7.2749-6.3766-13.98-5.984-14.234-7.5833 0.68513 12.953 3.9753 18.085 1.7859 5.8356 5.6899 11.641 3.1202 1.3006 0.70535-1.7279 5.9358-3.8876 4.568-4.6702 8.3039 6.4658 15.528-9.7159 25.064-9.8077-1.9168-10.931 20.019-13.836 26.196-11.044 4.6211 8.3164-2.549 25.211-0.72615 27.893 7.1703-8.0378 2.2343-24.265 5.6435-29.803 15.521-0.0195 10.864 21.109 12.702 31.782 1.6254 6.2756-9.9498 31.732 0.46226 17.366 4.6534-9.9856 3.9432-21.673 2.6517-32.417-2.7373-11.39 6.5129 8.6952 3.2924 12.726 3.8328 13.959-2.2791 25.938-12.667 34.912-10.521 8.9922-15.96 21.815-25.33 31.774-6.8992 8.298 12.679-12.229 6.0509-0.0562-7.0713 7.5697-12.898 17.671-20.584 22.542 6.9856 7.7908 12.933-12.139 16.849-17.11 6.0419-4.4159 12.012-21.788 17.215-21.006-5.46 13.063-11.445 25.816-14.145 39.885-6.1597 7.006 5.554 25.82 1.6034 8.4278 1.5151-19.027 9.5095-36.966 18.533-53.652 6.2338-13.14 17.026-23.125 25.804-34.268 6.3139-6.3268-7.704-30.742-5.2048-12.625 0.84529 5.5159-3.8053 17.87-3.2186 4.8209-2.7172-10.02-1.1076-21.596-9.0296-29.304 7.9444-2.8114 18.968 15.532 12.848 3.7002 9.6947 1.7566 5.9719 6.5077 13.752 14.419 8.6391 3.295 2.0654 31.807 7.0887 13.159-0.52222-9.3214-4.7758-13.706-8.6559-19.54-0.0159 0.0585-7.3137-9.4051 1.5429-5.6488 3.0296 6.8687 8.4404 13.42 9.5363 20.863-0.0289 9.7601 1.6864 20.091-4.5516 28.617-7.7834 13.709-23.469 18.474-34.694 28.206-9.776 9.9503-12.879 23.614-11.446 37.041-3.2187 5.5205 3.3027 24.145 6.5332 18.446-3.7064-12.415 3.3584-24.849-1.4113-37.828 0.0939-6.055 8.2542-21.867 7.4436-7.8853 0.47803 14.333 25.67-0.43168 17.674 12.884-15.569-7.1488-17.726 8.6152-14.613 19.943-0.79498 7.2551 7.1403 15.006 0.77213 4.8072 1.5253-7.8938-4.9822-24.713 5.8268-24.682-12.661 12.778 3.327 26.902 7.2566 39.277 8.2125-7.1684-12.636-17.068-7.9656-27.946 1.0129 8.2832 8.5818 16.935 12.61 21.796 4.449-8.8968-14.074-12.59-9.092-23.568 10.905-7.8471 10.616-24.482 21.454-33.505 8.4932-5.2065 4.1477 12.429-1.7988 14.25-3.8135 5.765-0.48488 20.6 0.56922 6.3567-0.42919-7.385 8.1866-14.039 5.5354-2.2981-0.19614 14.067 0.60364 28.26-0.46892 42.252-3.7401-5.1436-9.327-28.614-6.6136-10.595 5.9668 8.4595 8.2507 17.947 7.1274 28.188 1.6493 6.6607-7.4463 2.5766-11.343 3.6911h-274.41c-1.6e-4 -2.1636-3.2e-4 -4.3272-4.8e-4 -6.4907zm275.04-4.0982c4.024-10.294-7.9007-18.743-5.297-5.4905-2.1953 3.9286 3.5302 11.753 5.297 5.4905zm-8.5583-2.2049c4.661-8.6945-2.8605-3.8954-2.5145 0.56013l1.4651 0.15709 1.0493-0.7172zm-10.926-6.7716c-13.237-6.1873-5.0282-19.204-8.0362-28.78-0.31226 10.331-8.7406 22.77 6.0482 28.648 2.6038 2.6189 7.0405 4.413 1.9881 0.13183zm-157.13-3.8568c-1.1921-1.4311-1.6681-0.97434 0 0zm-36.274-14.879c-2.2397-6.8681-0.85652-19.32-0.76749-22.688-5.1505 8.0314-1.0747 21.414 0.53198 26.956l0.15934-1.6276 0.076159-2.6407zm14.755-4.9428c1.7995-7.6291 10.919-19.871 10.922-24.429-4.547 5.7532-13.352 22.958-10.922 24.429zm-32.127-8.6603c3.074-12.276 0.21858-24.098-5.7927-34.885-5.6099-7.9121 4.0933 13.344 4.8209 18.099 3.3178 1.0636-2.9203 25.587 0.97184 16.786zm-3.6446 0.88707c-1.3719-1.6224 0.54172 2.4449 0 0zm204.57-3.5424c-4.4703-4.8344 3.4098-30.362-3.1014-14.265-4.2194 2.8908 6.7002 25.258 3.1014 14.265zm-12.138-5.4182c0.19833-16.415 13.679-28.509 22.869-40.521-10.41 7.2649-17.562 17.292-21.56 29.392-1.5745 1.787-3.3421 24.738-1.3085 11.129zm-191.15 1.8521c-1.3261-1.2181 0.1154 4.3127 0 0zm0.26295-1.6549c-0.52156-2.2266-0.95882 1.8626 0 0zm-0.35278-1.747c-1.4872-1.1646-0.88705 0.62416 0 0zm0.17639-0.91968c-0.42662-1.2898-0.87007 1.2567 0 0zm20.285-3.8946c-0.28137-8.4828-4.3477-7.6655-1.2431 0.3668 0.6323 5.7675 1.4456 2.4076 1.2431-0.3668zm-20.887 0.10224c-0.38248-3.681-0.49739 4.5443 0 0zm-0.53386-1.9526c0.25722-5.051-7.5382-19.791-3.2575-9.7651 2.2088 2.533 1.9116 9.8094 3.2575 9.7651zm196.89-2.5742c0.8215-3.2577-1.9336 2.3512 0 0zm-199.22-1.9776c-0.60486-0.60653 0.30458 1.9722 0 0zm128.3-1.003c7.7444-4.9628-5.2184-14.176 5.1646-19.162 1.6912-8.213-7.6256 17.175-16.156 8.371-9.8521-5.371-21.224 0.8421-31.647-0.0132-11.014 17.073 23.16 7.4316 19.371 4.6771-9.8634 1.5098 8.8744-3.316 11.718 2.4538 3.5572 2.4823 14.19 3.7651 3.4514 3.4898 2.3959 1.5601 5.5991 1.381 8.0974 0.18324zm72.464-0.27585c-1.1861-1.5698-1.2819 1.8507 0 0zm-168.15-1.4204c-4.1448-5.0353 1.4987 3.5778 0 0zm170.42-2.9081c4.6164-9.7552-6.2879 8.5135 0 0zm-194.61 0.47002c-0.53349-5.911-11.14-18.005-3.5182-5.7329 1.0421 6e-3 4.0441 10.601 3.5182 5.7329zm15.603-2.9739c0.86715-5.3205 4.6522-15.816 4.4557-3.5075 1.284 14.233 4.5392-18.255-3.9227-5.1389 0.00189 3.8778-6.7115 18.923-0.53298 8.6464zm18.958 3.2728c7.6402-1.8965 7.3837-21.188 1.4405-7.1963-11.316 10.828-3.9775-15.193-14.347-14.674-9.1899-2.9403-13.238 28.261-7.7873 10.955-1.8502-15.724 19.563-9.7974 12.156 3.1971-0.91024 4.574 3.7062 10.326 8.5384 7.719zm-12.425-0.75386c-1.0136-2.0818 0.44732 2.4298 0 0zm141.47-3.2812c5.6144-6.4724 8.1456-13.369 0.76266-2.8327-1.7821 2.3491-5.972 9.1934-0.76266 2.8327zm-2.8125-4.1197c6.0364-3.4645 14.304-23.879 18.331-15.819-2.5056 3.553-13.661 12.872-3.728 5.6802 12.57-7.0921 9.0051-24.445 18.44-34.128-0.31819-6.9787 3.17-22.25-1.9326-7.2905-0.74468-6.323-2.8477-17.926-4.4299-20.917 2.7604 10.744 5.316 30.713-4.4685 35.45-1.4978-15.903-16.414 13.371-2.8725 2.8108 10.665 10.673-14.16 18.611-16.484 29.913-11.509 8.1702 3.8053-10.171 4.4738-15.133 3.5831-5.5537 1.5389-12.586-1.5222-2.6295-3.4732 6.9186-12.955 21.542-9.9402 25.343 1.2266-1.2661 2.5835-2.4259 4.1331-3.2785zm26.546-38.799c2.7289-5.8564 6.642-17.692 3.5195-4.4065-0.0603 0.61644-3.9576 6.4498-3.5195 4.4065zm10.159 41.451c-0.20612-1.7898-1.4862 1.7635 0 0zm1.9428-2.0609c0.70245-2.7966-2.8973 2.2176 0 0zm-188.34-0.38554c0.97744-5.6559-7.5379-25.325-3.8463-9.4484 2.2723 2.391 1.0341 8.2571 3.8463 9.4484zm-24.342-1.0273c-1.0913-3.0518-3.7276 0.15287 0 0zm215.97-1.2842c8.8308-7.5033 23.977-11.049 27.507-22.935-7.1649 7.784-24.895 18.759-27.507 22.935zm-217.98-1.0687c-1.7328-3.0562-0.28982 2.9629 2e-5 2e-5zm3.7799-2.6149c-3.7202-6.4181-3.5402 0.0995 0 0zm2.2477-3.2226c-4.6857-7.9161-5.8273-6.5244-0.3788 0.3767l1.1894 1.4676-0.81048-1.8443zm-10.263 0.80359c-1.1528-1.6267-1.1528 1.6267 0 0zm56.273-3.4705c-9.173-6.5864-26.055-4.1718-25.462-20.056-4.2038 3.8211 5.01 17.631 14.481 16.374 3.4478 1.1162 8.0575 3.068 10.981 3.6823zm-35.905-3.9252c-3.7227-3.9518 1.5201-25.548-2.3334-10.687-2.2626 1.1444 3.5833 17.339 2.3334 10.687zm-21.561 0.35277c-7.4175-12.221-10.99-27.501-9.5088-41.539-6.3595 13.619 0.20441 29.776 8.57 41.237l1.0359 1.0955-0.09684-0.79375zm223.43-1.4592c4.7459-4.0742 19.901-22.43 6.9515-9.5173-1.5757 0.64894-14.398 16.357-6.9515 9.5173zm-39.633-1.5576c6.062-3.8545 2.0856-16.447-0.74132-5.5926 0.22095 2.3068-3.3976 12.08 0.74132 5.5926zm-180.12-2.8072c-5.0389-6.6618-9.6147-23.037-11.686-25.648-0.51664 9.9177 6.904 25.843 12.886 28.126l-1.2-2.4782zm22.943 3.1672c-2.675-5.8105 3.7215-25.528-1.934-10.306 1.2428 1.9892-1.0278 10.464 1.934 10.306zm85.067-0.60205c9.1507-0.51334 20.547-1.2897 28.344-1.7002-13.436-2.2603-27.552-0.23125-40.867 1.9061 4.1675 0.32984 8.3509-0.22608 12.523-0.20582zm-53.613-0.79735c-6.1483-1.2641-19.795-7.9584-21.318-11.025 0.61818 9.0706 17.921 9.0638 21.318 11.025zm-64.602-1.2354c-1.6524-5.2929-8.3956-21.624-4.3107-6.4382 0.55005 1.481 2.6667 7.4311 4.3107 6.4382zm245.83-2.7282c7.3346-6.872 12.803-23.141 7.8535-30.154 0.3493 12.167-1.867 24.162-10.271 33.154 1.0666-0.74944 1.5418-2.0866 2.4171-3.0005zm-147.96 0.0775c10.803-8.8626 23.808-8.3143 35.732-11.049-1.9311-11.494-6.6173 9.8582-10.967-2.1657 0.71446-6.3842-14.569 12.262-12.653 1.5314 1.8044-7.571-7.0056 10.942-12.167 11.051-3.7438 2.1528-4.1489 3.7899 0.05508 0.63254zm58.969 0.84547c-3.6329-3.0262-4.4805-1.8942 0 0zm70.029-4.3723c10.008-5.8271 6.1086-23.912 4.8035-28.62 1.873 11.56-1.0867 23.744-8.5985 32.06 1.3623-1.0357 2.554-2.2686 3.795-3.44zm-73.912 1.7678c-4.4591-4.4631-12.953-6.9966-3.6185-1.4714 0.81692-0.28303 2.7628 2.2548 3.6185 1.4714zm107.63-6.4596c0.98412-9.77-3.6542 10.189 0 0zm-211.32 1.773c-3.2338-2.4098-4.8569-15.967-7.3976-16.027-0.051517 5.3121 1.4674 15.002 7.3976 16.027zm46.876-3.4272c0.07248-5.0828 19.527-19.135 7.0012-13.306-2.2386 0.13424-10.994 17.295-7.0012 13.306zm44.243 0.72766c-5.6694-3.8577-4.065 0.50879 0 0zm-111-3.4573c1.2521-5.2485-3.5617 4.4677 0 0zm231.88-1.0628c-1.1451-5.5776-0.82045 5.5648 0 0zm-226.48 0.52917c-0.90133-1.2656-0.90133 1.2656 0 0zm121.36-0.3451c-0.58597-7.2346-13.278-18.321-4.1873-6.1062 0.93695 0.0151 3.7538 8.946 4.1873 6.1062zm-101.34-3.7811c-4.2345-11.396 0.12851 9.793 0 0zm-21.974-2.198c4.5003-3.2419 8.3115-23.031 2.8018-8.8561-0.1605 1.072-7.9235 14.24-2.8018 8.8561zm114.49-6.9931c-0.57301-2.5271-0.39262 3.1223 0 0zm-147.57-2.9344c-0.1933-4.657-1.716 5.7197 0 0zm167.43-4.4312c9.6674-9.7791-3.6332 2.7571-9.2708-0.10357 1.8434 2.269 7.0067 1.4366 9.2708 0.10357zm-165.89-3.2177c-0.01887-4.1512-2.5475 8.2041 0 0zm-2.202 1.0583c3.7988-6.6531-3.0375-1.8974-0.88999 0.91117l0.88997-0.9111zm254.44-0.59881c-3.0521-4.4145 2.4551 4.7971 0 0zm-123.98 0.55095c6.6061-5.7802-4.2618-23.349 9.4968-18.848 2.7116-5.2399-13.245-3.1538-6.0281-12.378 2.057-2.675-6.7547-6.9593-2.0668-12.147-11.916-3.7344-10.74 27.386-8.3715 22.996-0.14681-6.7958 4.9392-19.791 1.3409-5.8168-0.06922 7.3512-9.3934 29.35 5.6288 26.194zm122.79-1.0105c-1.3158-8.0555-6.9038-11.057-1.1637-2.5621-0.9899-2.8193 1.1533 8.4391 1.1637 2.5621zm2.7209 0.42575c-1.1303-1.3892 0.38594 1.7491 0 0zm-32.007-2.3855c1.653-8.6771-3.9251-11.317-1.2457-1.207-0.50864 1.7172 1.7139 6.0123 1.2457 1.207zm-182.98-2.4708c-1.6531 0.11424 0.074574 2.853 0 0zm208.85 0.051c-5.1369-6.7338-0.3954 3.0048 0 0zm-245.91-2.2143c-0.13288-3.029-1.1971 4.248 0 0zm45.081-0.90271c3.109-8.0337-4.7929-28.122-8.7261-28.693 6.1886 7.0451 6.5224 27.677 8.7261 28.693zm198.38-3.3428c-2.3299-2.0794 1.2778 2.3855 0 0zm-31.876-3.8009c-0.61745 0.35257 0.57259 1.9427 0 0zm-173.97-3.9239c-0.84664-13.13-2.473-0.85715-0.12964 4.5077 0.45318-1.4688 0.11498-3.013 0.12964-4.5077zm-33.243 0.1315c-0.80496-2.4566-0.25009 2.4554 0 0zm243.81-0.1259c-1.8732-2.0374 0.62311 2.3303 0 0zm2.2828-1.0552c-5.8849-4.3336 1.5129 4.6789 0 0zm-246.96-1.3194c-3.5977-7.9026-2.7469-3.6379 0.26278 1.3032l-0.26278-1.3033zm243.14-2.4189c-8.1837-7.9378 1.4706 3.9009 0 0zm-4.9556-3.812c-4.3973-4.1235-1.2559 0.99072 0 0zm-35.856-0.8101c0.78789-8.8616-10.802-19.309-11.535-29.826-2.2859-18.019-2.9664 5.1675 2.0613 10.263 3.6648 5.5101 6.0892 17.178 9.4733 19.563zm-170.47-0.92733c-1.2441-1.5334 0.70931 2.6376 0 0zm-1.5029-4.5522c-1.7183-2.762 1.0589 5.229 0 0zm201.48 1.2625c-5.3866-2.4421 2.3272 2.3696 0 0zm-19.632-0.86993c-4.8411-10.117-10.825-22.604-9.8667-34.915-3.5727-10.655-2.31 15.819 1.8 20.841 2.0937 4.3415 4.2246 12.625 8.0667 14.075zm15.054-3.0861c-4.9178-10.416-4.7492-1.4113 1.0833 1.7395l-1.0835-1.7394zm-19.764 1.2927c-5.7546-7.9216-9.4406-22.774-10.526-28.927-0.34389 10.263 3.052 22.23 10.526 28.927zm-143.21-2.8339c7.1924-3.2249 9.351-11.187 1.1494-3.4725-1.1507-0.07329-5.2414 7.6581-1.1494 3.4725zm-35.659-1.9402c-2.4221-4.4594 1.4706 5.77 0 0zm3.793-0.20851c-3.5832-7.905-3.6416 0.55477-1e-5 1e-4zm189.85-4.9659c-0.69665-8.1157-9.1564-18.708-1.1935-27.196 2.8487-7.0916 2.5097-11.887-1.433-2.5775-7.3084 10.509-6.9132 22.544 1.5292 31.449l1.0973-1.6757zm-6.1315-9.2604c-0.55055-4.3592 1.3087 3.504 0 0zm-28.707 4.9782c3e-3 -4.6139-0.37666-21.332-3.4468-8.9992 1.2566 3.0926 4.6733 20.79 3.4468 8.9992zm-158.44 2.6065c-1.2375-3.1047-1.0003 2.9307 0 0zm129.46-1.3566c-11.559-6.6663-6.682 1.5336 0 0zm-14.726-2.8572c5.5757-2.6278-20.894-0.77884-5.5386-2.158 10.542-0.9633-12.791 1.586-8.5956-6.7106-14.114 6.9471 7.7266 13.493 14.134 8.8686zm65.131-3.5048c-1.184-4.8751 1.2025-18.57-2.3708-5.9152 0.44144 1.8098 1.7799 15.149 2.3708 5.9153zm-123.99 1.7832c6.7638-1.1044-8.7634 0.0031 0 0zm112.75-13.997c-0.87004-1.2567-0.42663 1.2898 0 0zm-141.06-7.3822c1.3715-10.402 18.98-19.798 14.541-28.779-3.3396-4.7597-6.1572 7.5125-7.5701 11.557-3.6158-0.15928-2.4689-3.7542-3.8032 4.1817-7.7826 3.4456-2.0288 20.984-8.0832 14.378-5.1503-3.665 6.3415 11.916 4.9158-1.3366zm10.719-19.198c5.9531-10.222 3.2454-1.974 0 0zm130.86 21.933c2.1123-5.1545 12.849-20.008 2.3709-7.9064-1.2896 0.69722-6.0086 14.824-2.3709 7.9064zm-148.61-4.4005c-0.04709-6.5483-0.85278 3.3384 0 0zm1.9194-2.8441c-0.18374-2.7108-0.71041 3.3549 0 0zm92.592-0.73758c0.21287-2.7253-2.0523 3.1926 0 0zm29.38-10.203c2.2801-9.8159-1.1898-21.961 3.735-30.256-6.0322 11.289-4.4692 25.632-5.6768 38.237 2.4059 9.2815 1.0376-6.8121 1.9418-7.9807zm-119.73 6.4124c0.66086 0.4886 2.9864-9.1002 3.4031-6.8286-2.452-2.7439-10.274 14.543-3.4031 6.8286zm154.7-2.2842c6.6747-3.349-5.7994 1.704-7e-5 1e-5zm-152.13-1.0503c0.03976-2.9237-1.2986 2.4786 0 0zm12.669-2.2052c3.1966-8.3642-4.0995 5.4461 0 0zm145.12 0.89594c7.5892-7.35-7.9262 2.8778 0 0zm-141.8-5.8324c3.8839-8.5666-5.5623 7.6477 0 0zm-16.222 0.59257c-1.6641-0.64553-0.22232 2.7825 0 0zm4.892-1.5651c-0.42664-1.2898-0.87006 1.2567 0 0zm12.685-3.8514c1.8227-9.4744-0.70062-6.5772-1.2316 1.7458l0.18922-0.06766 1.0425-1.6781zm3.8997-0.82475c10.038-9.9966-10.237-18.369-9.432-14.157 12.415-6.5464 9.6535 18.259 9.432 14.157zm-11.643-1.7676c3.303-5.6572-2.6755-12.745-0.2142-2.016-2.2836 2.4114-1.9227 8.6352 0.21425 2.0159zm-11.714-1.407c2.7931-5.2544-10.347 7.6118-1.2387 1.127l1.2388-1.127zm25.975 0.24611c6.0661-16.731-18.982-19.574-24.707-6.2418-2.2386 6.5462 15.199-16.256 21.599-4.4038 6.5345 0.07116 0.52982 17.641 3.1082 10.646zm-17.274 0.37272c-1.2362 0.47962-0.28739 1.9706 0 0zm-0.35278-1.4111c-1.2362 0.47962-0.28739 1.9706 0 0zm13.733-4.2028c-11.356-15.55 1.1366 6.8164 0 0zm-15.309-1.5684c7.8512-8.7887-8.1793 5.3709 0 0zm3.7042-2.6955c-2.1806-2.037 0.71493 1.9138 0 0zm94.892-2.075c3.2572-8.9568-2.4701 1.5777 0 0zm45.554-0.4424c6.879-5.3329-3.0103 1.238 0 0zm47.599-5.3319c2.6985-6.0312 3.5187-7.8888-1.4254-6.9673 14.316-5.703-5.6457-6.6189-12.099-2.5141-11.573 6.7485 5.8212 4.6283 9.8805 10.246l2.6341 1.2464 1.0098-2.0111zm-4.7732-6.0912c3.1458-1.6659 3.7917 0.68089 0 0zm-7.5354-4.4617c-10.088 3.5499-20.309 7.0175-29.817 11.855 7.4195-3.1125 15.439-5.0072 23.415-6.213m-71.542 3.284c5.1972-5.3338 5.255-10.192-0.51987-1.702-1.0045 0.0034-1.8917 5.4708 0.51987 1.702zm18.062-2.3419c-2.6566 1.2514-2.9854 4.3302 0 0zm-102.29-5.1041c-3.3497-1.7785-1.8137 1.0601 0.46848 0.44644zm-4.7417-0.51679c-2.7928-1.128-2.7925 1.2065 0 0zm-87.842 250.89c-4.3-2.1519-17.24-1.5423-10.553-7.7676 11.314 7.364 35.726-1.4616 26.415-17.207-5.6867-8.6529-5.5388-23.421-20.687-20-7.1662 7.3218-9.4623-1.0142-6.7249-5.141 5.0338-0.26148 23.716 7.0748 11.39-1.3138-5.6422 0.34192-18.952-0.61788-5.1308-1.31 9.4184-6.2996 20.615 17.791 17.654 13.471-4.0778-7.1974-10.25-7.872-1.32-0.60368-0.66678 9.4675 9.0149 13.788 8.9696 22.569 2.547 12.803-12.275 15.811-20.013 17.303zm224.42-6.6322c-2.5978-10.716 0.19889-29.508 2.5253-35.05 2.2498 12.727 1.4022 23.654-1.783 35.849l-0.74243-0.79981zm-227.97-3.1154c-8.7286 0.48984-11.926-10.519-1.9203-3.2177 5.4185 1.419 12.772 2.2508 1.9203 3.2177zm24.585-2.1618c0.27343-7.1143-0.41895-17.12 1.4807-4.213 0.23592 0.3764-1.8783 7.6435-1.4807 4.213zm-20.156-1.8253c-6.0208-5.1031-16.153-7.4589-13.229-17.048 5.7532 3.9006 20.313 6.6117 13.186-5.0774-6.6905-8.768 6.9593 12.309-5.6627 5.7312-9.7199 1.3934-10.297-10.967-0.6553-8.7011 6.6851-8.5916 14.477 13.362 9.1662-0.26312-2.7031-9.792-25.056 6.8829-10.852-4.1861 18.032-6.7548 12.318 16.12 21.277 23.463-0.03898 6.5936-9.1605 4.0529-13.229 6.082zm18.961-12.163c-4.1005-2.7369-9.9678-16.217-3.2132-5.0513 1.0392-0.40809 5.1985 7.9796 3.2132 5.0513zm0.79777-4.2402c-5.4589-12.668-16.541-28.749-32.906-23.495-0.03821-32.499-0.42035-65.519 0.35854-98.151 15.482 6.0361 13.737 24.288 9.1377 37.053-2.6691 16.839 3.2612 34.169 15.029 46.37 3.462 4.2311 15.452 21.106 2.5556 11.383-6.2081-9.2189-21.245-7.4628-23.926-18.784 1.3904 16.829 20.597 10.312 27.698 23.096 4.8226 2.8082 8.8004 23.337 2.0526 22.529zm-1.4435-11.809c-1.5861-9.3393-13.4-18.168-21.53-15.456 9.2521 0.8784 15.603 11.234 21.53 15.456zm-16.022-26.363c-5.7766-4.1306-11.234-12.078-4.6038-1.1024 1.1278 0.62812 3.3803 2.3494 4.6038 1.1024zm-11.79-13.461c0.49612-5.8768-2.7607 3.2437-0.42916 2.6311l0.42915-2.6311zm1.7907-5.2951c0.16415-3.5179-3.2127 3.7921 0 0zm250.14 45.887c-16.722-10.621 5.7272-25.518 16.585-29.694 5.1891-4.352 17.608-11.79 7.042-1.0765-12.129 6.6398 2.6726-0.21473 6.2783-4.3416-0.81068 7.8102-16.498 8.9693-17.293 19.932-0.9046 9.0686-18.451 12.787-10.801 0.73306 4.4137-4.4003 19.2-15.364 5.3442-6.6671-11.297 1.954-13.614 24.149 0.21025 16.483 5.8983-6.6061 14.199-23.317 22.72-19.087-10.54 5.6413-14.552 22.562-28.104 24.101l-1.982-0.38348zm-220.95-12.27c-0.8955-5.5502-13.944-20.889-2.2104-8.0675 3.1906 0.40878 4.5044 15.357 2.2104 8.0675zm-6.6048-14.258c-0.74275-2.3567 1.9499 1.4018 0 0zm203.85-0.81911c0.89281-0.64515 1.4045 1.1364 0 0zm-195.73-22.976c0.35373-3.8201 1.1084 1.973 0 0zm0.11317-11.755c1.0044-4.9433 0.87875 4.1346 0 0zm1.1777-7.6937c0.68661-8.5329 9.2937-19.177 11.724-23.682 0.32481 8.5206-10.361 20.661-11.724 23.682zm-24.245-8.314c1.9575-11.69 4.8285-26.938-5.6261-35.547-5.274-3.091-11.804-14.292-1.5032-5.899 12.553 8.8769 17.149 29.096 7.1293 41.446zm271.78-4.3262c-5.427-4.5839-8.8223-17.185 0.16742-9.6432 0.85665 2.3227 0.83796 8.7433-0.16742 9.6432zm-11.984-2.6174c0.28739-1.9706 1.2362-0.47963 0 0zm-89.969-4.057c-0.58208-1.3078 1.7834 1.3285 0 0zm-91.274-1.0724c-3.6398-3.9461-6.8697-14.074-0.88936-4.0616 0.43502 0.53844 4.4331 7.5555 0.88936 4.0616zm-57.895-1.0443c0.30872-1.5901 0.30873 1.5901 0 0zm250.85-2.4647c-0.94289-3.5482 2.6766 1.9786 0 0zm-235.61-4.4145c2.2054-7.7543-0.39066 7.7365 0 0zm232.75-4.3757c-5.6882-6.4559 1.1827-1.5491 0 0zm2.6904-2.4503c-8.1892-11.114-26.283-17.097-25.185-33.284 7.2545-5.687 7.6582-25.635 20.393-16.028 11.126-2.4419 3.5015 8.6052-2.802 0.75226-9.1813-4.2009-11.298 20.54-6.27 5.7786 2.3924-9.3551 22.307 2.9086 12.62 3.9833-14.998-9.2531-9.8965 20.928 0.5206 23.05 5.0925 7.5962 0.44657 11.379-5.5821 3.9914-6.5976-3.5955-12.044-15.068-13.947-18.251 0.10959 13.877 16.97 19.759 21.086 30.972l-0.83516-0.96363zm-18.077-33.057c1.5065-6.8807-3.114 2.6298 0 0zm-217.77 32.718c-0.09816-7.014 2.3621 4.2063 0 0zm-41.099-0.87319c-4.9239-2.9518-11.423-10.6-2.2582-3.541 0.65633-0.0599 6.0158 6.2663 2.2582 3.541zm28.174-5.8985c-1.3012-5.2701-1.5152-15.352 0.26891-3.711 0.21337 0.59947 1.3148 9.9653-0.26891 3.711zm12.132 1.2072c-1.0186-5.6834 3.0721 2.5896 0 0zm-1.0664-4.2632c-2.0161-7.2659-14.286-17.268-14.196-20.739 6.0135 2.9173 17.667 17.248 14.196 20.739zm23.288-3.4894c-4.1328-3.9252-6.3698-26.687-1.6402-10.137-0.37801 1.7963 5.0243 14.744 1.6402 10.137zm-7.894-17.523c-0.076363-13.356 1.9989 10.328 0 0zm-28.502-3.7545c-8.8654-6.4967-16.238-10.176-27.07-14.11-7.7639 3.4825-9.6345-10.471-2.0133-4.6316 10.25 4.9622 32.857 4.1756 31.116 19.712l-2.0326-0.97014zm27.152-6.1483c-5.735-7.2149-24.055-10.044-24.678-17.46 10.22 2.6182 25.292 7.8879 26.96 19.665l-2.2828-2.2049zm-55.123-6.6122c-5.0923-2.3182 7.5616 2.2359 0 0zm-0.20574-10.227c-8.2261-0.72652-5.9434-9.0584 1.1514-2.3937 5.8191 1.583 18.327 1.918 5.1913 2.5391-2.1146 0.04422-4.2346 0.07376-6.3427-0.1454zm122.04-7.0548c3.8567-2.2341-2.3495 2.5131 0 0zm3.0477-1.3525c12.794-4.3701 26.788-8.2055 36.16-18.418 7.2298-2.5425 4.6362-7.4354 7.0514-6.3464 6.3381-7.1691 11.851-20.013 18.352-24.635 12.829 2.405-10.943 14.642-10.751 22.528-2.0664 6.8191-4.5907 15.108-9.3329 8.7067-11.608 10.301-26.714 14.755-41.478 18.164zm59.61-42.01c1.6825-4.3011-2.2145 3.8108 0 0zm-164.39 24.674c-11.132-3.2203 14.934 1.0772 0 5e-5zm105.48-1.761c1.2659-1.3431 0.4381 1.3908 0 0zm13.935-1.7871c7.2246-8.0571 11.061-20.079 6.898-28.554 11.709-3.3051 13.37 14.673 5.6338 19.758-9.1561 3.3918-6.4227 7.1157 0.9429 0.9243 6.6087-5.548 11.303-13.068 5.6551-20.569 5.5393-0.37868 8.4076 1.3125 8.4933 9.0959 0.41199-5.1812 0.47632-13.817 1.5975-3.1432 4.5682 8.3825-14.795 27.076-3.721 10.732 2.9714-7.948-7.5285 11.483-13.532 8.8069-3.5265-0.33835-9.4176 4.7653-11.968 2.9492zm31.13-17.852c-2.5161-4.9006 1.1346-16.064 3.9695-8.2271-1.1474 2.3467-1.2816 7.623-3.9695 8.2271zm-103.1-2.3443c3.1378-2.8992 15.866-12.497 6.3359-3.9208-1.8555 1.5689-3.7507 3.6777-6.3359 3.9208zm107.74-1.799c2.1379-6.2013-0.3022 4.2201 0 0zm-159.6-0.71465c3.9467-2.5451 23.661-5.819 9.4328-1.613-3.119 0.34581-6.2778 1.887-9.4328 1.613zm69.126-0.8151c7.9737-12.238 3.8488 1.5091 0 0zm166.88-2.1042c4.8905-3.7782 13.848-3.5437 3.1058-0.6481l-2.4885 0.7159-0.61736-0.067778zm-74.083-2.5701c1.3562-1.2648 0.90422 1.3066 0 0z" fill="#E1D5C7"/><path d="m-61.274 276.78c0.51954-13.268 24.153-5.4783 29.844-18.76 6.911-10.478 15.861-18.806 20.773-30.529 1.8574-4.3022 5.1043-15.962 2.6508-3.8285-3.828 13.681-13.644 24.224-18.368 37.243-4.449 2.4779-16.36 10.646-3.2831 5.9407-8.118 8.846 7.3846-5.2821 10.993-8.6012 9.175-7.6945 11.015-20.501 12.531-31.696 1.9721 12.19-6.0988 25.997-9.134 35.033 8.9319-9.2622 8.3347 16.139 10.395 1.0958 2.6976-8.0027 11.604-13.367 5.3574-23.973-3.545-8.0571 3.3039-15.949 1.507-25.189-4.803-14.402-17.19-23.548-22.739-36.923-2.8136-16.266 1.0423-33.435 11.627-46.204-5.4284 10.926-12.641 21.856-10.251 34.954-0.8913 8.6238 2.0435 22.775 10.397 23.959-7.5363-15.191-1.4425-30.726 6.7887-43.881 0.56026-5.2733 1.4153-23.88-2.0269-9.0366-2.318 5.5918-10.896 25.198-11.402 22.525 6.611-12.95 14.427-27.08 9.5304-42.034 1.1549-13.856-6.293-26.401-15.037-36.459-1.9575-6.375-14.645-20.567-2.6141-7.5021 8.9202 12.519 19.035 25.636 19.619 41.784-4.3614 11.13 16.615 22.307 12.676 5.8975 0.81272-13.802-13.053-24.532-14.796-35.978 6.0343 10.276 16.04 19.117 16.051 32.471 3.1999 21.084-0.55294-11.933 1.0712-12.95 13.042 5.7898 14.805 19.886 11.527 30.981 5.5007 10.434 21.898 16.534 28.185 6.0116-1.2597 4.3194-8.5775 8.4027-0.27498 3.1991 1.7005-5.0731 21.884-19.008 9.0472-6.9152-11.848 6.3528-5.7072 15.572-12.392 26.239-3.1807-5.1632-14.454-9.9599-3.5991-2.335 1.6724 5.3204 7.1834 16.479 8.589 3.6775 1.5366-7.8252 10.638-24.297 11.258-23.488-2.012-1.3384 16.067-15.92 6.3502-7.9559 7.586-6.8561 1.4982-18.104-2.3066-8.3601-4.4689 5.182-1.5607 2.9165-8.1537 7.8571-2.9588 0.97948-13.977 4.6478-18.565 0.0401-2.8817-1.2742-10.732-8.3447-13.407-15.526-3.5341-7.1434-13.582-10.33-16-17.173 2.6806-12.901 1.4523-28.235-8.235-38.374-10.881-8.0203-25.065-11.341-38.408-11.159-7.881-1.7143-25.811 1.8727-25.717-9.9098 0.17762-6.2492 10.558 10.83 17.611 7.2873 15.006 3.2575 30.736-2.0173 44.924 6.1624 7.2343 3.7357 9.9266 23.553 13.095 22.377 0.079483-4.7347 8.5942-6.6356 8.3408-15.769 2.0041-9.7968 19.539-18.65 13.497-28.476-5.1104 6.1821-15.665 13.796-20.165 22.487 0.85263 6.6038 4.887 16.498-0.85264 4.6571-4.9836-14.54 17.531-15.962 18.944-29.25 14.729-1.0716-9.5082 30.917 3.9202 12.096 7.5594-8.0703 1.3966-25.17-9.1608-13.741-3.0917 4.5192-23.184 14.861-10.15 6.6458 5.1708-10.791 28.085-19.068 24.427-0.10249-1.571 4.6672-0.54118 15.179 0.86748 3.2146 10.939-18.905-16.473-24.27-25.112-9.7687-10.229 9.864-24.805 16.34-38.879 10.989-13.601-3.5536-29.425 2.594-41.365-6.7142-1.8451-15.071 8.6644 4.9856 15.764 3.5539 14.461-0.88518 28.677 3.4075 42.996 2.2837 18.154-3.1996 26.519-27.741 46.633-24.741 8.6137 0.22412 9.7616 12.661 11.275 15.408 4.6616-11.763 22.487-12.986 21.675-27.193-3.8174-13.27 7.3014 3.9057-0.4485 8.4489-3.3357 8.4821-21.714 13.669-20.126 21.696 6.7195-2.8997 12.047-4.2963 3.1633 0.72525-9.2867 2.8554-15.04 24.209-11.097 24.818 6.341-15.388 22.956-21.633 37.947-25.128-10.982 6.7374-26.785 6.6108-31.851 20.943-6.4074 8.3152-2.4696 19.654 5.747 23.707-2.1017 4.7808-11.399 8.5391-1.6461 4.0609 11.384-12.157 0.89848 11.932-10.049 4.8674-8.0136 1.1257-8.1631 0.83205-3.7068-2.2147-13.999 1.7817-3.6295 11.053 4.8303 7.775 7.174-1.0554 7.9689-3.704 15.67-2.9841 11.372-0.37102-1.604-18.101 7.734-25.077 2.6006-7.6242 12.893-10.633 3.2024-1.675-8.7446 6.3719-5.7303 23.846-2.9494 25.623-0.7462 7.213 8.9602-3.0515 8.1863-5.1698-1.5755 15.119 10.247 1.6488 8.6961 1.2709 3.721 5.1727 11.495 4.9601 20.189 1.1235 6.3661-2.7563-21.61-2.1518-8.2798-9.0241 7.9868 1.0325 25.211-5.4911 11.781-12.703 6.758-7.4623 5.8494-18.7 0.66713-26.67 13.5 10.968 3.5173-11.434 9.2702-17.106 0.7593-8.2391 11.037-16.087 2.6274-4.1736 3.1932 0.33052-6.2289 23.815-0.50934 24.531 4.655-16.988 3.6555 13.708 10.308 18.275 0.41551 3.1491 3.8059 18.393-1.4895 8.7278 6.1141 8.5165-1.7593 21.889-5.1445 24.175 5.2614-1.2426 14.631-16.344 9.1242-25.602-3.432-13.507 4.7092-24.735 5.1561-37.849 3.4895-13.565 21.299-13.017 29.015-23.822 3.241-3.6197 24.999-11 10.278-2.8722-3.4378 1.8034-15.317 8.2896-5.3917 4.8507-2.1885 4.4174-21.136 15.339-8.9559 5.5391 9.9008-9.0922-9.8238 6.3116-12.95 8.2669-11.067 8.901-14.726 23.29-13.778 37.062 3.0178 20.91 10.848-11.725 12.002-8.0045 0.93588 6.8858-13.567 24.432-4.1743 24.3 9.4737-7.4756 8.7738-23.505 19.355-31.404 10.701-2.6452-11.397 10.285-9.9103 17.18-2.5079 4.8679-4.7358 13.114 2.7263 6.5993-11.354 8.236 0.89085 23.917 5.247 34.034 1.0038 10.911 11.616 5.7784 4.2422-1.5069-3.6901-7.3791-8.4992-24.097-6.6051-27.692 1.1422 11.991 5.1308 23.721 11.684 33.836 10.355-3.8849 12.277-22.978 18.946-24.802-4.5749 10.282-9.0283 23.439-17.469 28.507 4.3176 6.9192 1.8023 8.8817-0.81727 0.9665-6.3376-7.5426-5.6687 4.6843-6.8483 3.9712 0.30793-8.2758-13.099 6.3024-8.7764-1.6389 1.3042-12.405-11.989-23.474-8.1151-35.6 0.5917 11.841 9.709 27.688 11.875 34.649 8.1085-5.2923-5.7846-16.842-7.1402-24.205-3.6946-5.7668-0.42547-22.217-9.4733-9.8391 2.5147 10.226 5.3306 22.807 6.2252 29.403-1.531 8.7984 1.1996 4.721 4.4434 6.1841-4.2028 6.3952-18.458 5.3164-25.422 11.008-3.0096 1.0113-8.7381 11.1-13.371 4.6806-8.059 7.062-11.622-8.5124-20.261-9.6123 0.94679-3.9101-13.672 0.29872-9.6197-10.799 2.5069-1.9342-2.147-9.8067-2.634-13.485-11.949 3.1527-9.3282 16.793-8.7977 27.073 2.811-4.034 6.0974-25.842 3.2799-9.1005-2.1457 8.9238-8.889 34.755 8.3401 25.401 0.29088-5.6082-0.31335-27.011 5.2894-13.262 2.0131 4.9211 6.3858 12.207-0.38617 3.6093 9.5536 8.4946 16.323 18.622 19.669 31.622-2.6137-1.7262-8.9212-15.42-8.8909-8.573-6.7302 6.6861-5.5726 21.447 4.5922 21.177-3.817 0.22316 7.021-14.95 2.6315-3.8569 1.3995 7.4407 6.2583-6.1305 3.9026-10.546 2.2218-5.0085-3.5581-21.785 0.85664-8.5387 0.57458 3.9494-0.0356 21.811 3.7491 14.443-1.5631-12.118 4.5479-27.753 17.313-31.672 14.115-2.2281-6.8798-11.449 8.4125-12.593 7.0866-2.2997 18.709-7.5918 15.623 5.08 6.0314 4.1436-4.4181 25.692 5.1087 18.648 6.539-7.2265 0.89061-23.147 3.767-27.452 3.9995 12.54-2.5574 32.153-5.4294 39.251-9.1777-2.7987-10.279 15.499-2.9066 12.317-6.7016 5.4605-19.63-2.2249-16.913 12.181-0.0727 6.6992-12.638 29.049-0.0718 25.776 1.0076-1.101 7.0261-7.0134 10.977-12.149 12.004-8.1207 14.9-22.476 20.514-34.818 5.8125-13.175 5.6357-27.907 1.387-41.407 6.1727 8.9754 5.3686 24.965 4.9696 36.833-3.4709 13.7-5.4333 28.806-17.185 38.285-6.3759 12.771-16.566 22.955-28.311 30.791 5.2538 9.5234 11.353-9.2566 18.705-9.8672 6.0166-14.342 1.2843 4.5521-5.5604 5.5562 0.29027 10.781-16.636 9.3861-11.89 18.343 7.4356 0.48041 14.621-21.578 10.065-6.6128-7.1106 7.5851-8.9679 19.223-18.094 25.14-3.1056 3.9918-5.4801 7.5825 1.5528-0.16978 13.087-7.0184 23.89-16.551 24.056-32.842 4.66-8.5478 10.348-21.976 15.206-27.223-3.9623 10.6-9.4244 20.503-12.786 31.467-4.3096 8.6876-5.7576 26.892 6.0234 27.262-3.5001-15.751-3.7153-32.537 4.5386-46.95 6.2154-13.281 12.384-27.048 23.057-37.264 7.1501-7.8606 16.667-17.462 10.256-29.114 8.4183 13.601-1.4746 29.768-12.295 38.587-7.5536 7.8031-13.684 15.068-17.888 24.331-6.6169 12.651-7.9904 27.889-1.9004 41.001-3.73 7.9177 13.005 24.78 5.2989 7.8163 6.1873-13.963-4.1086-29.627 4.5075-43.015 6.3594-7.7181-9.184 15.358-0.98654 19.991 6.1147 6.6545 1.2037 15.669 0.96737 21.465 1.4413 8.8442 6.9252 11.704 11.794 15.063-2.294-0.51331 7.8172 7.4462 10.756-2.8565 0.35881-7.0128-2.6998-10.393-5.8891-13.806 4.9737 1.8715 8.9347 18.65 10.321 2.9483-12.9-7.0591-2.173-20.936 2.1868-30.406-3.4587-8.6424 21.136-22.152 7.4514-10.023-5.2105 9.406-10.086 22.295-8.3351 34.033 2.8005-5.2755 5.4374-20.089 12.277-26.514 3.1641 2.855 0.95353 15.267-4.0588 20.124-10.994 11.604 2.7161 19.636 3.1009 32.153 4.6195 8.332 2.6763 14.523-6.7663 11.985h-95.888c-0.8394-7.7282 8.1418-18.015 8.4885-21.869-3.5846 6.2102-8.6349 13.368-9.6084 21.869h-56.637c-2.9794-5.6708-7.4282-23.539-8.1731-21.231 5.3025 9.2228 0.79121 15.363 6.3316 21.021-14.087 0.35936-28.183 0.15686-42.274 0.21015-11.868-15.083-11.903-35.813-10.344-54.019 5.4394-13.16 3.5853-27.237 2.3325-40.726 2.2901 5.4026 3.4332 26.125 14.657 13.984 8.5252-15.382-15.934-16.433-24.943-21.723-6.83-3.5479-4.4765-26.448-2.7842-8.9484 3.2385 10.04 15.778 12.772 24.961 14.995 8.6947-1.8218-8.9527-7.5621-14.621-8.7659-9.8055-1.2207-7.6897-30.85-16.065-14.859-6.0183 12.543 2.6861 24.557 5.2264 36.604 11.032 11.902 6.6639 26.076 8.0916 40.366 2.767 13.425 0.34355 28.824 9.8874 39.975 7.0419 5.4207-13.312 3.9436-13.946 0.33368-2.3177-5.2638-6.701-17.267-4.8723-4.1238 6.9181 7.0562 3.1499 7.6931-4.4326 6.9076-17.41-6e-3 -34.82-0.0114-52.231-0.0171 0.0017-1.9417 0.0035-3.8835 0.0052-5.8252zm16.768 3.8008c7.6419-8.9275-2.4478 0.66419-0.8224 1.0503l0.82241-1.0502zm99.508-5.2546c-3.1221-2.904 2.9369 3.7197 0 0zm-95.29-0.6875c1.1025-2.604-2.2077 3.2819 0 0zm92.912-1.9025c-7.3727-6.5521-4.8084-2.594 1.196 1.5384l-1.1961-1.5384zm161.35 0.67371c5.4482-4.7742-1.3603-26.991-6.1183-11.559 1.4298 4.1402-1.6473 15.149 6.1183 11.559zm-8.7659-3.5784c4.8492-8.7072-2.9499-4.0462-2.6932 0.4115l1.5347 0.33571 1.1585-0.74712zm-160.62-3.8919c-3.2774-2.5829 3.723 4.0106 0 0zm-1.4339-1.092c-1.1921-1.4311-1.6681-0.97439 0 0zm-1.4111-1.059c-3.9865-3.5521-4.013-2.9231 0 0zm45.498-2.8647c-1.2362 0.47962-0.28739 1.9706 0 0zm-50.084-1.7207c-1.1921-1.4311-1.6681-0.97434 0 0zm-1.9022-2.0717c-5.8845-8.7689 0.76346 1.9159 0 0zm56.432-6.4382c-0.80527-7.311 1.2802-21.553-1.0101-6.3911-0.03854 3.4098 0.26897 16.97 1.0101 6.3911zm-61.443-2.5659c-7.0863-6.5982-1.6466-32.287 4.3446-13.61 7.2713 8.3721-6.5317-10.654-5.0033-15.612-0.70422-11.524-5.8785 1.3811-8.7752 3.4885-1.8718 7.6831-7.9015 14.13-5.8103 20.609 9.1598-4.7818 12.681 3.3828 17.588 10.502-0.5037-1.904-1.5117-3.6118-2.3436-5.3784zm16.564 0.94831c-2.5845-4.9145-14.633-16.477-4.8487-5.4042 0.20853-0.2366 9.787 12.936 4.8487 5.4042zm161.13-3.9386c-2.772-3.7445-0.8568-11.465-2.2517-1.974 0.0902 0.41812 4.3676 5.3127 2.2517 1.974zm-112.61-20.729c0.03672-10.749 23.528-18.592 11.033-26.976 3.9669-4.782 8.0703-16.869 2.2466-4.6848-8.1179 13.451-23.065-6.1896-34.71 3.7494-16.452-6.2487-17.902 14.709-4.4535 19.529 8.4033 14.019-6.8014-8.1124 4.8763-7.1532 6.0532-5.7538 21.462-3.5808 23.558-0.57636 0.05521 1.4168 8.2207 6.0266-0.43939 7.3477-2.9022 3.6287-7.8785 24.97-2.1104 8.7645zm-82.727 1.9248c-0.3497-1.2975-0.72606 1.796 0 0zm1.0773-1.6061c1.0488-1.9826-2.0059 1.8217 0 0zm0.90479-1.5505c-0.3053-1.8634-0.83732 1.851 0 0zm2.0173-1.9403c0.38421-6.0336 15.422-14.667 10.683-15.699-1.848 2.5494-14.85 17.414-10.683 15.699zm82.157-1.619c8.2517-6.8279-2.4484 0.43369 0 0zm91.704-40.714c3.3186-3.4118 17.964-20.053 6.3596-9.4578-3.1492 2.316-16.444 19.238-6.3596 9.4578zm-116.79 1.7598c9.7793 0.94118 20.411-5.3137 27.705-0.84824 12.2-0.0634 6.5805-4.2962-1.8128-4.1714-12.9 0.58967-26.444 0.0666-38.774 4.1593 3.2499 2.2494 8.8956 1.2626 12.882 0.86032zm-50.243-1.6443c3.5285-13.355-10.087-7.0748-16.085-11.025 9.9272-1.5244-8.8293-14.106-2.8413-21.143-7.2434 7.8847-1.2454-18.477-4.4819-3.7974-3.1062 11.707-2.2237 30.947 12.322 34.111 3.1996-0.15793 8.6812 4.5098 11.086 1.854zm-16.993-15.595c-4.5902-5.5493 1.6707 0.507 0 0zm50.429 10.271c10.749-8.6396 23.511-8.5906 35.47-10.841 2.3835-4.1249 8.7256 7.6283 8.7614-4.6538 3.5368-4.1498 7.8948-16.365 1.4576-6.1836-9.7091-0.92371-18.999 16.3-25.389 1.6046-9.8682 1.2161-9.6651-12.79-16.952-1.1012-6.8273 3.9228-9.9014 26.032 0.71664 13.711 1.0407-5.6559 9.7737-15.682 3.3909-4.5816-0.01975 6.8537-15.476 16.607-7.4559 12.045zm58.969 0.84547c-3.6329-3.0262-4.4805-1.8942 0 0zm-60.678-1.7696c-2.4742-1.0416-1.7052 0.60529 0 0zm-40.973-11.126c2.4688-6.4981-6.409-18.087-3.9902-4.4395 0.41381 1.637 1.9196 5.2789 3.9902 4.4395zm142.37-4.0843c4.0074-5.4373-2.982-18.854-1.3354-5.7885-0.22277 2.0585-2.5931 12.181 1.3354 5.7885zm-119.04-0.8817c-0.87004-1.2567-0.42666 1.2898 0 0zm-11.994-4.3434c-2.2737-2.0044-2.9253-1.7766 0 0zm-5.3714-5.799c-3.7409-6.9696 1.126 3.7042 0 0zm-1.8685-4.8185c-1.4024-6.1991 0.58845 5.132 0 0zm52.219-3.7516c8.8501-0.22184 8.1483-5.6874-0.27608-1.4592-1.6088 1.9615-4.5058 5.8288 0.27608 1.4592zm59.294 2.1763c2.7509-3.4209-1.2736-0.93274 0 0zm-64.689-1.8759c-2.2269 0.0441-0.05563 3.8134 0 0zm-47.345-1.4317c0.69467-4.1731 3.441-16.381-1.9602-15.58 3.3148 0.7379 0.287 24.495 1.9602 15.58zm86.531 1.5611c-4.3671-7.7037-17.922 0.73862-3.6112-1.6711 0.99178-1.2616 5.3999 4.8139 3.6112 1.6711zm29.533-2.1709c5.8484-3.8122 17.872-8.2636 3.9618-3.121-0.19837-0.18414-8.2505 5.3062-3.9618 3.121zm26.226-8.453c4.7314-2.9504 1.6124-17.957-0.80694-6.8406-2.0103 3.1931-7.6099 9.9773 0.80694 6.8406zm-87.796-7.2022c1.872-3.5195-3.2655 1.2235 0 0zm73.276-15.573c1.2808-9.231-10.563-12.028-2.7868-1.1201-0.028 1.361 1.9187 3.0813 2.7868 1.1201zm-115.21-5.0275c7.0769-4.4518 7.9011-6.8289 3.8962-13.352 1.0586-5.7807 15.335-10.517 11.271-14.651-7.4662 8.7728-15.247 17.637-18.57 28.945 0.57268 1.6399 3.3306-0.18135 3.4026-0.94185zm-1.3648-0.13197c1.894-1.0511-0.85962 1.0842 0 0zm-0.96426-1.3465c0.61825-1.8555 0.54837 1.2964 0 0zm4.9389-2.2761c1.4873-1.1647 0.88695 0.62418 0 0zm-1.7639-1.4057c1.1921-1.4311 1.6681-0.97439 0 0zm96.55-4.649c-13.381-1.5803 7.9043-27.54-2.4655-12.26-7.2076 6.8839-11.697 12.275 1.8414 12.689l0.62394-0.42905zm-113.36-3.4045c0.50474-2.9495-1.4691 2.7909 0 0zm1.7698-2.7062c2.0462-4.3982-3.4937 4.6491 0 0zm34.228 0.19494c6.7638-1.1044-8.7634 0.0031 0 0zm-31.581-3.6081c9.0251-10.339 24.513-17.072 23.525-33.308-2.0752 6.371-11.783 21.712-20.31 28.856-0.90888 0.49728-8.092 9.9832-3.215 4.4527zm96.267 1.4871c-1.266-2.4085 7.3026-5.2801 1.6661-3.4245 0.5715-0.29738-5.5075 4.4245-1.6661 3.4245zm14.444-16.014c-0.585 0.45152 0.52211 2.3251 0 0zm4.9192-0.27226c-5.1316-4.8553-6.8734-24.138-4.9872-8.2438 0.0324 3.5084 0.0109 11.37 1.0308 4.1878 1.3498-0.21824 4.1367 5.6813 3.9565 4.056zm-6.2237-18.066c-0.94423-1.5461 0.82537 3.5392 0 0zm-3.1787-24.578c3.2572-8.9568-2.4701 1.5777 0 0zm-64.024 259.07c0.87007-1.2567 0.42662 1.2898 0 0zm-45.024-0.97013c-1.0687-1.6409 1.9467 2.1379 0 0zm-68.041-26.717c-5.1631-1.764-14.464-2.9204-3.3673-3.276 5.652 7.1675 22.997-3.7126 9.7884 3.9918-2.129 0.41391-4.5897 1.203-6.4211-0.71586zm12.23-13.117c-6.0939-0.46717-22.778-4.8351-19.89-10.349 7.2246 1.0462 11.71 11.983 20.359 7.6234-13.849-12.955 10.388-1.0546-0.46948 2.7254zm-1.7351-11.305c-1.6281-6.7299 0.49461-11.897-9.2219-14.141-4.6762 1.6252-16.033 6.4218-5.0755-0.52722 12.819-5.4226 14.573 7.7869 15.721 16.15l-1.424-1.4811zm11.597-3.954c-5.0744-11.586-10.263-21.366-25.132-21.697-16.79 0.18427 11.013-4.9703 14.563 3.1025 5.5105 3.7637 14.122 20.516 12.176 20.893l-1.6075-2.2987zm2.6756-3.6443c-0.28856-6.8595-4.4037-21.63 1.2664-8.2789 1.482 2.5807-1.1942 20.978-1.2664 8.2789zm207.79-4.4979c0.28371-2.2078 0.2837 2.2078 0 0zm-226.87 0.1176c-1.288-2.1589 1.954 1.4499 0 0zm7.6895-2.4576c-3.1338-3.818 4.5139 4.2444 0 0zm-4.3907-1.395c-4.1096-3.2287 4.8277 3.3018 0 0zm1.3903-0.34134c-1.9911-1.5437 3.7011 1.8308 0 0zm10.075-7.2125c-2.5118-4.8491 3.927 3.1472 0 0zm18.496-2.9104c-3.0889-6.6238-7.9406-14.84-11.631-19.386-6.1689-8.858-11.577-18.908-15.561-29.098-2.2442-10.354 1.9009-19.141 3.816-28.508 3.9744-3.3935-4.4753 17.604-1.6493 19.753 0.07149 11.558 4.4375 24.79 13.037 33.514 4.5197 4.7853 14.956 22.825 11.988 23.725zm-21.61-0.11564c-12.223-4.6967-29.366-8.2006-26.301-25.598 3.0437-15.181-0.75487 18.419 9.9414 18.253 4.849-3.7929 21.53 9.1534 16.359 7.3454zm35.24-11.331c-1.488-9.3743 16.211-8.4418 2.5675-3.7384-2.0294-0.20327-2.1597 9.5686-2.5675 3.7384zm190.83-3.2284c3.3394-4.6422 6.2994-9.3724 11.994-9.4324-4.2009 3.2174-5.9029 9.1532-11.994 9.4324zm-236.33-2.7194c-6.8137-10.954-1.4813-5.394 0 0zm248.67-8.6374c6.6164-7.8644 10.237-18.509 12.5-28.499 1.1204 9.8828-1.7227 25.074-12.5 28.499zm-254.79-2.1904c-4.5019-4.2465-2.7631-17.114-0.70205-4.8024 0.17796 0.82969 3.5944 7.7314 0.70205 4.8024zm235.32-3.7151c3.5511-3.3002-2.7225 3.3849 0 0zm-0.46347-1.8411c2.653-2.5671-1.8285 2.5131 0 0zm2.6458-0.17639c3.3294-2.9254-2.3042 3.0237 0 0zm1.9776-1.9939c2.742-2.767-2.3644 3.0589 0 0zm-1.9776-1.7102c1.7061-2.5519-0.90701 2.5076 0 0zm-17.639-2.1375c1.0085-1.8913 0.13249 2.3069 0 0zm18.896 0.27019c1.2362-1.6099-0.4467 1.468 0 0zm2.9867 0.2798c0.2874-1.9706 1.2362-0.4796 0 0zm-26.116-0.65258c0.24039-0.94887 4.0253-1.6413 0 0zm9.5358-0.40576c0.28739-1.9706 1.2362-0.47962 0 0zm-122.9-0.4154c-1.6405-6.5529 8.7173-18.386 2.8014-6.5626-1.033 1.7071-0.99758 5.7495-2.8014 6.5626zm108.81-1.264c3.0431-2.8118 1.7952-0.69071 0 0zm-216.23-5.3086c-3.6613-12.193 3.2783-26.71-4.4897-37.202-0.48817-3.045-1.9929-16.312 2.7135-8.1729 7.7973 10.699 4.5013 24.312 2.8174 36.384-1.2406 2.3326 2.358 21.209-1.0411 8.991zm231.57 3.8861c1.2362-1.6099-0.44669 1.468 0 0zm-12.899-0.95492c1.7061-2.5519-0.90701 2.5076 0 0zm5.6723-0.82983c-1.2572-5.5447 1.5888 2.4454 0 0zm7.7332 0.49787c0.61825-1.8554 0.54839 1.2964 0 0zm-2.1272-1.0595c2.2364-3.2634-0.92751 2.5296 0 0zm19.181-1.9599c0.26883-4.7924 0.21707 5.2552 0 0zm-14.232-1.7207c1.1922-1.4311 1.6681-0.97433 0 0zm13.458-3.8067c-0.78485-5.6914 0.60178 3.3451 0 0zm-14.435-0.99899c0.28371-2.2078 0.2837 2.2078 0 0zm2.4154-1.2641c0.22689-1.3596 0.35794 1.6057 0 0zm35.576-1.2935c-0.4252-7.3442-7.6503-15.811-10.127-23.895 3.0279 5.4455 13.277 16.82 10.127 23.895zm-253.56-2.0285c0.30873-1.5901 0.30873 1.5901 0 0zm216.2-0.57933c0.81631-3.5306 1.1605-0.0427 0 0zm13.474-2.4193c0.3845-1.6754 0.20682 2.1249 0 0zm-75.245-0.3281c-1.0448-8.2429 2.1781-3.9254 0.37756-0.16358zm2.1508-2.329c3.3774-1.1889 7.855 0.73986 0 0zm8.1139 0.27471c2.4953-3.0118 3.127-1.8368 0 0zm-2.1167-1.0278c4.9029-5.1345 4.2286-0.88494 9e-5 -4e-5zm56.147-3.1162c0.30873-1.5901 0.30873 1.5901 0 0zm-112.69-1.9003c6.2281-7.6824-5.5805 7.915 0 0zm60.774 1.6454c2.5413-4.0558 1.0703-0.93393 0 0zm-73.797-0.69164c1.9722-0.30455-0.60662 0.6047 0 0zm15.236-4.3451c1.7061-2.5519-0.90699 2.5076 0 0zm112.21-0.91134c0.2269-1.3596 0.35796 1.6057 0 0zm-2.8572-1.0375c-1.1997-2.3033 1.822 1.9137 0 0zm-173.56-0.0167c0.99178-2.3343 1.439 0.35828 0 0zm25.135-0.32611c-1.8671-2.9419 3.077 2.211 0 0zm-1.7623-1.8234c-3.6182-5.0101-5.1282-11.712 0.26158-2.7059 1.2515 0.13665 1.783 5.3837-0.26158 2.7059zm-21.201-1.5294c0.30873-1.5901 0.30873 1.5901 0 0zm-43.59-2.9302c-1.7997-4.7106 2.747 0.55961 1e-5 -4e-5zm-9.9867-3.508c-2.7721-9.5868-7.7253-17.886-15.976-23.233 10.503 0.83995 18.586 18.635 16.595 25.537l-0.61907-2.3046zm247.25-0.4763c-3.4626-6.3033 5.6544 5.5084 0 0zm-238.2-1.0753c-4.158-5.0771-7.3425-16.54-2.1198-19.745-2.5282 4.94 4.1536 19.381 2.1198 19.745zm213.04-2.8345c1.9722-0.30455-0.60662 0.6047 0 0zm46.986-10.319c-11.859-4.4485-18.035-18.935-13.66-30.63 1.7632-8.6043 15.651-1.2708 4.63-1.3359-9.4387 4.5808-3.2975 21.607 5.0548 25.107 0.70015 2.2915 6.9197 5.0272 3.9752 6.8588zm-54.115-7.8803c-29.324-12.536-58.648-25.072-87.973-37.607 29.324 12.536 58.648 25.072 87.973 37.607zm-159.07-1.8448c-0.94546-16.472 2.0156 0.52995 0 0zm-50.146 0.20131c-1.6992-6.9367 3.7231-1.3112 0 0zm-1.2434-6.4457c-3.5913-9.1091 4.6071 4.3855 0 0zm114.45-5.0173c9.5429-9.1866-4.3927 5.905 0 0zm-116.46 0.92371c-1.5383-8.3971-16.75-12.058-17.654-15.632 8.1637 0.18525 19.752 7.1708 17.654 15.632zm35.383-0.50999c-1.323-10.198 2.4231 3.9362 0 0zm-0.35234-4.7574c-3.5924-11.24-15.9-15.004-23.99-22.493-5.6522-0.18069-21.372 2.5039-7.0008-0.64765 12.44-2.7817 19.939 10.393 29.475 16.088 1.3958 0.22724 3.7181 8.4639 1.5162 7.053zm229.96-6.247c-0.86248-4.2452 4.9194 2.297 0 0zm-58.736-5.8446c0.55447-3.9319 12.377-6.8468 18.873-11.577 9.1221-5.7949 21.317-13.466 25.14-22.707-4.6312-6.913-22.542 7.6695-10.757-2.818 3.985-2.4025-0.56359-4.3895 7.6707-0.49854 8.2245 7.5544 17.494-11.986 3.6323-11.588-11.809-5.3538-26.218 0.03175-35.351 8.317-6.3149 4.0517-19.956 21.983-13.214 10.713 11.252-12.616 26.521-25.075 44.515-22.899 7.6861 5.0706 17.217 9.375 16.301-3.6682 3.6208-5.9175 4.5986-11.31 4.2208-0.64778 1.8999 7.109-6.3941 11.846-0.27588 16.055-5.5688-4.6885-17.147 9.73-9.7107 14.948 9.8431 9.2562-3.3296 1.6112-4.7844-3.8273-9.3998 8.2085-17.777 17.748-29.541 22.924-4.9664 3.3418-11.255 5.1688-16.719 7.2747zm-104.17-8.1742-0.39584 1.8049zm111.22 1.4846c3.565-5.5654 11.257-5.486 1.7009-1.1752 0.53976 0.97449-1.6109 1.5988-1.7009 1.1752zm-25.585-7.6824c-1.6402-11.194 11.869-30.383 16.473-30.772-8.3035 9.9163-14.143 21.796-15.551 34.762-1.5156 5.7871-0.73481-3.4261-0.92245-3.9907zm26.047 2.0982c2.0475-4.7682-0.95023 3.0309 0 0zm7.2988 0.30681c6.4054-5.8974 6.8704-1.0974 0 0zm-116.06-2.6264c1.1922-1.4311 1.6681-0.97432 0 0zm121.36-0.58665c3.187-4.307 6.1797-14.635 3.2299-3.052-0.52141 0.58707-2.3484 3.9321-3.2299 3.052zm-119.51-1.2464c2.6117-1.6692-1.5585 1.702 0 0zm70.204-1.9721c-1.6414-3.8051-0.45474-13.336-0.25054-3.5462 3.5255-11.09 2.7643 1.0465 0.63065 5.0758l-0.1954-0.78631zm87.76 1.1224c-8.132 2.5293-18.524-14.634-7.5357-4.5924 1.2998 2.4344 16.605-0.71459 7.5357 4.5924zm0.35278-2.6144c-1.329-1.1414-1.9445 0.61284 0 0zm-155.83 1.5498c3.7349-2.1881-2.6489 2.4523 0 0zm2.9847-1.4549c1.894-1.0511-0.85961 1.0842 0 0zm1.1524-0.38339c2.6619-1.4688 2.4278-0.04373 0 0zm4.6229-1.314c8.37-3.2327 6.8501-0.97499 0 0zm-67.53-2.3693c2.0845-5.1492 7.6313-1.8307 0 0zm145.1-1.5598c5.5763-13.655 15.849-27.159 28.755-33.483 2.5378-3.7378 23.213-3.6677 8.6165-2.2944-8.6792 3.6797-15.065 9.7039-22.025 16.096-6.6226 4.7903-10.834 13.688-15.346 19.682zm-20.215-1.8099c-1.5917-8.6971 2.8278-3.4487 0 0zm55.458 0.70995c-5.0769-9.3567 15.195-20.554 3.316-7.7405-1.5515 2.126-1.6203 5.9557-3.316 7.7405zm-216.73-4.0924c-7.584-1.4057-16.638 2.4305-22.769-3.5739-7.6157-0.85047-14.744-17.668-2.6173-6.5675 8.0138 2.6982 14.757 8.4997 23.222 8.3571 11.925-3.8065 30.334 1.2759 35.489-14.164 6.7511-5.4929 18.814-20.955 22.303-21.278-5.4294 11.745-20.018 15.74-23.227 28.887-7.5238 7.6506-22.197 7.2423-32.4 8.3386zm135.1-3.8524c-21.303-4.4096-42.606-8.8191-63.91-13.229 21.303 4.4094 42.606 8.8191 63.91 13.229zm26.16-1.9487c1.7862-4.2615 1.9539 4.4142 0 0zm-27.748-8.2542c3.6578-3.9477 7.523-13.595 4.3453-9.3015 2.4986-15.924 4.7318 2.5284-1.8758 6.8005-0.69443 0.03988-1.2324 3.3231-2.4694 2.501zm-165.93-1.6988c-0.06349-5.0976-0.15837-12.714-0.035-2.8095zm223.59-1.6937c1.6832-5.0013 1.7012 2.9921 0 0zm-103.4-2.8239c0.41341-14.746-14.802-10.608-23.976-8.828-12.889 4.7702 20.24-13.874 22.979 0.076075 2.2556 0.94057 2.1425 16.782 0.99696 8.7519zm-83.025-0.84588c-11.887-5.3595-31.528 4.3898-37.091-11.631-0.42815-8.9214 6.7211 11.856 14.936 7.5681 5.3162-0.1841-16.206-9.0039-12.33-13.346 9.0212 10.321 23.48 12.714 36.494 15.898 7.6329 3.9101 23.335-18.955 9.2214-7.6983-5.4852 3.0891-10.861 1.8025-1.6938-0.86524 3.3901-7.0839 24.58-11.39 11.186-0.73604-4.824 7.0793-11.536 12.886-20.722 10.811zm119.77-0.1168c3.1713-4.777-7.6226-21.553 0.092857-15.704-0.77193 4.8556 4.6264 12.596-0.092857 15.704zm32.138-6.9324c-0.1358-5.9576 8.8288-16.138 3.3124-4.8914 1.0217 0.7861-2.9198 8.2982-3.3124 4.8914zm3.3125 0.11353c2.0219-2.2079 3.2728-2.7613 0 0zm-158.09-1.1478c-5.6036-3.5293 14.504 2.5886 0 0zm142.8-0.064756c2.3701-7.9261 0.67741 3.0467-1e-5 -4e-5zm-149.77-0.93035c2.4023-2.4626 5.1054 1.8732 4e-5 0zm213.61-0.17705c1.9914-4.2708 2.3683 0.56044 0 0zm18.841-1.2526c3.0995-2.9165 3.5848 2.2076 0 0zm6.0854-0.46981c-1.461-2.7519 7.0155-0.94681 0 0zm4.6819-0.77389c2.081-5.3488 16.409-3.2414 3.5581-0.70702l-1.7049 0.46596-1.8532 0.24109zm-91.974-0.19771c-0.99651-9.6765 4.8193-4.5606 0 0zm-26.498-2.1121c-1.7798-4.2542 2.3155 4.0122 0 0zm-71.506-0.24741c3.0333-3.6129 3.3605-2.0322 0 0z" fill="#A49192"/><path d="m-61.195 276.89c-2.6301-11.364 14.174-5.6693 20.001-11.114 12.12-8.1219 20.025-20.308 27.765-32.27 3.2177-4.9113 8.2102-21.789 4.4545-6.9869-4.3884 12.266-12.999 22.097-17.432 34.087-9.0171 4.9597-10.684 8.2147-5.8601 8.3388-9.7469 4.9142-15.02 17.237-27.686 13.677-2.6907 0.82234-0.68215-4.2737-1.2418-5.7326zm17.028 3.8965c7.852-11.838 23.482-15.723 31.027-28.545 4.5266-4.1349 6.7136-25.722 7.1952-22.535 0.90916 11.052-7.2307 24.524-9.7787 32.16 9.134-8.3482 8.8924 16.479 10.893 1.4716 3.7026-8.2989 11.293-14.96 5.428-25.553 0.42045-13.336 4.5794-26.423-5.4329-37.771-7.4426-11.508-20.296-20.992-16.216-37.041-1.3143-5.0264 5.0916-25.367 1.8299-9.9176-0.57278 12.49-3.4519 30.601 10.156 37.3-1.1966-4.782-4.2614-24.999-0.70284-7.799 1.8595 13.87 13.316 24.657 14.103 38.155-3.3816 14.072 2.4107 28.026 2.4236 42.216-2.1118 6.5482 12.009 18.646 7.2336 19.676-4.3163-1.1025-11.264 2.3943-13.165-2.9292-2.6377-4.0122-6.8726-16.665-6.2792-5.3209 12.407 14.146-13.557 6.2688-21.785 8.2684h-18.58zm60.45-0.73823c-9.9938-14.9-9.8604-33.967-8.563-51.159 2.3921-9.4052 6.3859-19.361 2.7541-28.938-0.37242-6.7578 1.9298-11.856 1.4617-1.5758 3.4184 20.056 26.391-7.4585 7.7465-10.653-11.234-4.2968-27.832-7.5943-24.665-23.764-0.42796 14.499 14.58 20.32 26.346 22.562 11.051-0.2121-7.8706-9.612-12.382-8.598-11.68 0.1858-8.3119-29.845-17.761-17.008-1.7893 4.9456-4.3818 18.189-2.9128 5.4804 4.1178-12.104 13.541-22.272 10.389-36.075-1.9349-1.7478-10.709 26.446-5.4103 10.361 5.1535-12.329 0.00639-25.886-0.85549-38.498-2.5492-10.927-14.918-20.49-16.401-29.127 6.9475 10.176 15.035 19.916 18.103 32.225-0.55034 8.6041 4.9148 33.226 15.225 20.369 0.70815-14.923-8.9627-26.793-15.427-38.996 10.818 10.507 15.652 24.735 17.445 39.687 0.84676-7.1125-4.9737-30.203 6.901-16.158 12.371 7.8554 0.49183 19.238 5.4866 27.506 5.8399 8.028 20.273 15.477 25.957 3.2546 1.8885 0.80512-11.275 11.207-0.15483 4.688 1.5396-5.4011 22.929-20.758 9.6257-8.0891-12.687 6.0546-5.6643 15.841-12.271 25.616-7.061-10.902-27.301-6.7112-28.529-22.634-1.9026-5.7112 5.0694-19.096-2.7498-19.311 2.778 11.756-1.6617 30.336 15.01 33.359 11.272-0.19247 12.946 13.748 19.369 16.83 4.0358-12.625 8.7766-25.842 18.437-35.572 5.9271-4.1714 5.0778-8.3643 4.1793-7.299 5.118-11.99-6.3888-10.858-7.879-1.2922-1.4359 7.1604-23.489 8.6008-18.403 7.0875 1.0748-2.4082-17.262-4.325-17.228-14.131-4.3113-7.5813-12.866-12.739-18.019-18.7-0.33726-15.911 12.784-26.898 24.505-35.374 7.4201-11.679 10.361-27.811 9.8107-41.188-9.6314-13.462-24.042 1.7754-32.85 8.4299-12.635 13.025-30.219 5.3684-45.522 4.8017-8.7069-0.65657-26.017 2.3143-28.317-8.3971 2.3867-5.1212 13.079 12.2 22.061 7.3966 14.994-1.6007 30.644 6.7211 44.811-0.82168 13.017-7.3156 22.652-25.54 39.788-21.536 10.774 1.0009 6.3754 24.106 14.292 9.1306 7.1358-7.6451 23.807-13.867 15.505-27.066 12.726 11.673-9.9926 22.938-16.846 31.074-12.336 9.6596 13.164-1.4957 1.167 4.943-8.8654 5.5933-14.937 17.225-11.704 27.399 5.3468-15.523 20.86-23.196 35.902-26.37-10.591 5.7893-25.587 7.3494-29.831 21.345-7.4886 8.7384 0.49799 18.493 6.1257 22.996-4.5426 4.7981-9.3655 7.8891-0.2786 2.5592 9.2904-4.3401-2.9419 10.526-9.2628 5.1945-6.9009 0.44672-12.743 2.4857-5.0244-1.879-11.696 0.17424-8.6506 10.999 2.0285 8.4419 7.4742-1.3086 22.905-4.7899 25.635-4.7114-0.8997 10.056 11.572-8.6561 8.1761-2.4793-0.86049 8.9664 11.586 4.5535 8.0286-2.7039 6.195 12.847 28.061 1.4243 30.127-5.9568-6.8551 2.8625-9.5128 9.0161-18.781 4.6795-6.8128-9.9656 25.775-1.8913 17.808-15.138-8.5916-5.5364 6.5068-12.36 0.51914-21.318-4.366-7.8588-5.1505-8.5331 3.1239-3.2543 0.99979-9.7551-0.77617-24.295 7.5019-33.18-3.5612 9.1427-3.2678 13.02-5.6274 25.448 3.1541 14.032 9.7657 30.655 0.48361 43.697-5.0136 6.0151-11.99 13.615 1.9515 13.12 3.778-0.5185 4.7501-10.396-1.1564-3.771-3.7659-5.9842 6.7744-16.101 5.3678-24.871 10.602 9.6494 4.1643 20.381-1.6655 29.196 9.6462 4.5477 1.5129-5.6274 9.2886-7.9084 6.3781-13.733-5.0871-30.159 4.5701-43.626-2.5434-16.505 10.713-23.08 22.743-29.359 5.367-5.6495 17.423-12.335 21.727-12.588-11.395 6.7778-22.162 14.366-32.567 22.618-10.69 9.0346-13.808 23.991-12.605 37.439 3.9457 17.072 8.8293-5.6142 12.506-10.766 0.67809 8.8019-12.907 21.721-5.5059 26.653 7.9209-0.3636 9.5349-20.918 7.6696-5.4589 13.238-5.8075-5.5682 2.3846 1.0438 9.0605 3.055 9.2619 8.063 26.138 15.673 28.48 4.7249-3.6688-8.5999-18.607-5.476-20.059 2.1725 13.761 12.395 24.907 19.456 6.6381 1.0112-4.9619 11.626-21.649 5.4217-8.0171-1.8119 9.6337-8.6698 18.63-14.824 23.393 4.8002 10.538 1.259 4.6892-1.4415-1.5455-9.3902-2.8144-2.2394 13.207-7.326 2.7669-11.746 11.874-4.554-8.5641-11.461-14.254-3.9941-4.8827-6.0168-27.262-2.8918-9.7472 4.6176 7.3018 7.842 24.326 10.536 25.501 8.7902-5.7034-5.1165-17.144-6.7688-24.634-3.5394-6.4362-0.9404-21.37-10.101-9.6707 2.8508 9.7054 5.7944 21.911 5.8293 29.421 2.2636 3.6345-2.184 9.2018 4.885 6.4445-3.4215 5.8962-17.193 4.598-23.635 9.5321-7.1917 6.3036-13.126 7.9494-20.911 6.863-4.7458-5.2613-14.356-11.467-15.631-12.991-14.64-1.3893-3.9676-8.8265-8.2168-13.738 0.70393-18.639-17.602 0.99002-12.091 10.653-0.29244 16.801 4.8352-0.83621 4.7232-8.073 3.3715 8.5282-14.5 33.593 3.7976 35.266 7.927-1.6352 3.7362-10.274 4.4968-15.731-1.0485-16.46 11.504 14.279 4.1628 1.8896 1.5891 7.2827 16.609 15.69 17.314 27.659 5.9422 16.845-6.3207-17.978-7.9216-0.8498-10.702 7.9652 4.6931 22.961 6.6788 17.648 0.611-6.8637 5.4055-9.2067 0.90396-0.29285 9.3352 4.2994 2.9246-18.684 6.9615-5.1664 9.0516 2.83 4.4787-4.914 2.2013-8.7383 3.6943-4.6263 8.45-18.342 19.724-21.559 10.71-5.2625-6.6722-16.172 8.6039-16.512 11.546-5.4782 11.163 0.42105 4.4765 8.6197 4.306 7.6054 10.269-6.2408 7.5146-11.47 3.333 9.4773 1.9706 21.46 3.8619 30.266 9.8094-6.3761 5.301-23.755 5.9568-30.233 2.4556 12.021 1.9304 31.012-8.0017 37.405-7.0228 5.9562-6.6009 14.505-1.3294 14.824-9.0015 1.8789-17.498-0.74644-15.778 12.373-1.8549 6.8733-12.32 34.206 3.2167 22.557 8.7986-11.211 21.514-19.894 24.667-34.648 7.1423-14.65 11.901-31.483 6.7554-47.577-1.9545-10.74 4.3614 11.886 3.3794 15.434 1.8378 13.727-2.0969 26.973-6.0528 39.929-8.2022 12.744-16.59 25.759-27.026 36.989-6.1412 1.911-20.252 16.378-5.6828 11.264 2.6244-7.0163 12.461-9.4675 14.653-15.875-5.4358 9.6146-13.996 18.589-21.404 25.054 2.9655 12.03 18.163-18.59 10.677-2.3479-7.4124 12.234-15.652 22.674-24.875 33.78-7.0746 5.1049-2.0328 21.661-13.448 18.304h-49.832c-4.8556-12.87-8.2191-26.723-17.874-37.116-10.158-7.365-11.656-25.024-18.17-31.172-5.2088 8.0198-15.683 20.91-9.9851 29.56 14.245-6.6664 16.845 19.067 29.459 23.893 4.7419 4.5737 22.794 17.68 5.7236 14.797-11.153 0.046-22.306 5e-3 -33.46 5e-3 -0.54763-0.84691-1.0933-1.6963-1.6422-2.5416zm70.853-18.256c8.8121-11.381 1.7352-26.952 8.6907-39.284 1.1148-9.7264 24.353-15.31 10.435-25.755 3.9579-2.9264 8.2237-16.636 3.0684-5.2044-3.2471 7.609-11.827 7.9057-17.458 3.0416-8.8308-2.6066-17.942 3.1735-26.983 0.84628-16.77 10.6 9.0405 18.954 8.7522 32.004 0.14043-7.2481-9.9617-18.78 4.8056-20.349 7.8823-4.8183 31.393 3.3979 17.357 10.304-3.7067 10.896-5.806 21.272-5.3571 34.005 0.59361 3.8284-10.621 24.903-3.3116 10.391zm-12.461-23.708c0.94713-5.943-2.3522 3.0431 0 0zm0.57513-4.3424c-1.8342-2.6956-0.86475 3.3598 0 0zm-0.41754-3.568c-1.5545-3.7275-0.70612 3.3429 0 0zm-61.148-4.7015c3.1504-7.682 14.489-14.351 14.832-20.814-6.3697 4.9182-16.248 19.238-16.197 22.84l1.3652-2.0256zm85.573-5.784c11.261-8.1785-3.758-3.2123-1.3148 3.7624l0.21238-1.0308 1.1024-2.7316zm-27.69-38.461c11.271-2e-3 22.624-4.5183 31.668-1.1085 17.194-3.2925-9.9419-5.9754-14.934-4.25-8.7024 1.4404-21.784-0.3385-27.743 4.5819 3.5198 1.4016 7.3256 1.4346 11.009 0.77667zm-48.174-1.442c5.4597-13.196-11.757-9.4186-15.25-11.35 9.6353-4.0255-10.056-13.407-2.8146-21.562-7.719 7.1137-2.9416-19.999-5.4232-6.421-3.0554 12.539-3.3677 33.232 12.196 37.017 3.6223 0.24344 7.7472 3.7579 11.291 2.3162zm32.446-5.4269c11.052-8.1905 23.767-10.383 36.197-11.32 3.66-3.5912 8.6049 6.7682 8.5885-3.5079 3.8485-3.4104 8.7776-19.681 1.7333-7.8417-10.058-1.4555-17.992 16.315-25.019 1.7372-9.3198-3.3351-14.559-9.4884-20.478 3.3468-7.4258 5.5815-2.253 21.418 4.4999 9.6091 1.115 5.4597-13.447 5.5603-5.1582 6.9235-3.1687 2.0827-5.514 4.452-0.36338 1.0526zm8.4762-14.608c1.7234-5.7764 3.916-2.6332 0 0zm53.267 15.842c-1.4871-1.1646-0.88711 0.62415 0 0zm-1.5377-0.83904c-3.8419-3.6001-3.576-1.2287 0 0zm-101.55-12.977c2.9903-5.6895-5.9209-19.352-5.0687-6.0082 0.26522 1.8805 2.2896 7.8091 5.0687 6.0082zm141.09-1.8485c6.7486-4.7594-2.3624-23.203-0.57489-8.0464 0.73618 1.8714-3.7013 9.1769 0.57489 8.0464zm-85.359-21.375c5.3822 0.0944 12.211-5.0335 2.2992-3.5074-5.3332 1.0173-7.861 12.061-2.2992 3.5074zm34.604 0.0899c-3.9628-8.9205-19.552 0.707-4.36-1.6259 1.5065-0.70347 5.3353 5.4226 4.36 1.6259zm1.8231-19.003c-1.3562-1.2648-0.90423 1.3067 0 0zm1.4003-1.5875c-1.2362 0.47962-0.28739 1.9706 0 0zm37.598-12.414c2.5027-8.2665-10.486-16.366-4.0812-3.3027 0.56596 1.1216 1.9967 5.5614 4.0812 3.3027zm-115.36-5.4188c8.1795-3.683 6.6253-7.9984 4.2616-14 1.6256-3.4666 18.028-14.645 9.8997-13.715-6.0875 8.61-18.095 19.741-16.546 29.447l2.385-1.7321zm22.359-16.074c-6.0543-1.9948-7.1819 1.4583 0-1e-5zm72.167-60.197c4.1286-9.2296-3.0063-0.68065 5e-5 -4e-5zm-4.6305 256.77c3.5046-14.898 13.606-29.396 28.421-34.723 10.737-9.0315 7.9332-25.613 16.581-36.414 2.2549-7.0282 13.742-22.998 5.0834-6.7889-5.3392 12.737-12.394 25.675-12.465 39.862-0.91666 9.738 15.545 16.419 8.4147 2.2355-1.6364-11.06-2.0893-22.737 3.2394-32.923 4.4685-12.411 11.545-23.71 18.03-34.929 6.7317-10.348 20.467-17.06 20.058-30.766 2.7946 15.409-9.3147 25.743-18.5 35.837-11.757 10.789-18.885 26.716-20.396 42.479 2.2567 11.842 1.9274 27.304 11.595 35.362-4.8196-11.285 3.8463-23.48-1.1022-35.43-2.9001-6.3232 8.4741-24.92 1.7043-10.85-3.9121 12.706 8.03 23.378 1.7681 36.091 0.78052 9.3714 16.833 26.791 22.996 12.507 1.9735-5.3956-9.7055-19.736-1.448-8.864 4.5637 13.691 8.9172-6.9495-0.37084-8.9655 1.0569-12.379 8.0875-25.924 15.444-36.105 12.868-8.2705-8.8154 9.4081-5.7468 16.685-5.0032 5.5501-3.2476 31.901 0.42514 12.826 1.4704-4.4609 8.7117-22.714 10.432-17.868 1.472 7.1398-1.7632 12.775-5.5152 18.654-10.964 12.389 4.7771 22.832 4.6167 36.404 5.1808 9.325-3.4857 7.7161-9.4467 7.5847h-94.037c0.0738-0.63373 0.14754-1.2674 0.22131-1.9012zm93.607-6.9031c9.1609-11.873-7.9959-28.078-5.5625-6.1875-0.39167 3.2862 1.027 8.8746 5.5625 6.1875zm-8.4175-4.0036c6.4796-11.535-8.2549 0.14132-1.2003 0.85158zm2.5869-25.052c-1.4734-6.5059-2.8821-9.9184-1.9753-0.84642-1.5769 1.3786 4.7383 3.3128 1.9753 0.84642zm-18.035-65.239c5.374-4.1644 18.418-22.162 5.6508-8.8127-2.1503 0.88172-15.383 17.706-5.6508 8.8127zm-136.02 94.245c-11.434-9.5179-24.69-19.799-26.802-35.596-0.22441-8.7214 2.9998-15.84 6.7734-4.2114 8.0131 11.591 19.827 21.233 22.278 35.905 0.93634 3.1756 3.13 10.29-2.2497 3.9024zm-104.59-18.61c-4.9652-2.9297-16.863-3.244-4.6428-3.6453 4.0913 6.4176 21.371-2.2256 8.766 3.7465l-2.572 0.48565-1.5512-0.58695zm10.936-14.188c-5.9231 0.18758-22.617-5.4522-19.881-9.5011 4.673 2.3149 19.424 14.255 19.308 5.2885-10.523-11.75 10.374 3.5935 0.57294 4.2126zm-2.0674-11.389c3.0878-9.2049-9.742-19.751-16.059-10.429-9.443-0.13432 17.409-10.778 16.644 2.3417-1.2957 1.8127 0.8647 9.5076-0.58465 8.0871zm13.5-1.0852c-5.4623-10.814-12.324-25.608-27.046-24.323-15.425 0.60072 9.4093-4.1131 12.906 2.6059 7.859 3.7738 12.177 17.285 14.14 21.717zm1.3565-3.5534c0.33634-2.3032 0.21758 2.7413 0 0zm0.33259-2.4694c0.3845-1.6754 0.20692 2.1249 0 0zm-0.06877-2.6292c-1.7024-6.5233-4.0058-16.723 0.40702-4.7348 0.2404 0.83833 0.63309 8.6465-0.40702 4.7348zm13.411-17.038c-6.0086-14.337-18.294-25.156-23.217-40.02-8.8619-10.114-0.82888-28.649 0.49914-36.467 0.84915 7.3992-4.8891 13.668-3.0705 21.038 1.6592 13.685 6.8625 27.279 17.178 36.861 1.6073 2.3782 13.005 24.342 8.6103 18.588zm-22.195 0.0818c-13.261-3.3222-29.969-10.066-24.736-27.461-1.0255 11.35 5.0284 23.806 17.414 22.134 1.0693 1.0592 12.958 7.7955 7.322 5.3274zm36.523-12.694c0.85666-5.8236 11.108-6.1765 2.1523-2.2091-0.10568-2.8295-3.2694 5.7641-2.1523 2.2091zm191.63-2.0187c3.0927-6.4756 15.949-12.221 5.1278-3.0037-0.0925 1.0499-7.8056 5.7544-5.1278 3.0037zm-237.85-2.832c-7.371-10.76 4.3308 5.0237 0 0zm249.58-8.4667c7.3242-4.7817 9.4738-23.464 12.137-24.416-0.59787 8.6653-3.5955 22.919-12.137 24.416zm-255.32-1.5488c-3.651-4.8004-3.2502-16.004-0.91208-3.49 0.03298 0.49638 2.5076 4.5774 0.91208 3.49zm175.8-12.886c-1.0866-1.5976 1.5522 0.30165 0 0zm-73.249-1.7759c0.41605-5.994 6.6445-13.826 1.7675-3.4214 0.1791-0.90331-1.8855 5.9995-1.7675 3.4214zm-67.365-0.63473c1.1147-5.5979 1.1473-0.0474 0 0zm-39.689-0.92851c-3.4378-12.402 0.46493-25.396-2.7419-37.516-4.552-1.4315-3.8484-13.423-1.8764-12.182 9.8901 10.731 6.0678 25.61 4.4558 38.493-0.25241 3.6653-0.08924 9.7884 0.16248 11.204zm173.79-1.1882c0.38452-1.6754 0.20684 2.1249 0 0zm0.17308-2.4999c1.4386-7.1079 0.0213 4.5391 0 0zm96.991-10.074c0.55522-5.6852-12.275-22.507-8.9055-20.23 2.8637 5.7819 11.716 16.257 8.9055 20.23zm-9.3664-2.1398c-2.8181-6.121 2.3598 3.1746 0 0zm-222.98-0.14871c3.1449-5.9001 10.961-17.788 3.5748-5.1042-1.2112 0.88934-2.4882 5.1565-3.5748 5.1042zm133.32-5.511c0.78039-5.3884 0.33892 5.068 5e-3 0.0616zm-86.615-11.9c-6.5371-7.6744-1.8595-7.7103 0.84845 0.27277l-0.84842-0.27267zm-65.4-5.1219c0.83386-3.0555 0.83384 3.0555 0 0zm-9.3238-1.7639c-1.5181-9.5376-9.8567-19.9-15.837-24.273 10.374 3.679 16.747 17.297 15.837 24.273zm247.05-1.1465c-2.9186-4.6713 4.8869 5.6706 0 0zm-238.38-1.5064c-7.9032-3.639-2.1937-29.866-2.4137-12.56-0.5336 3.2802 3.4663 12.626 2.4137 12.56zm259.37-13.689c-12.96-4.0191-19.477-23.91-9.4725-33.577 15.054 1.2257-9.1016 1.7176-3.7279 11.145-0.90789 9.3282 6.7904 15.664 13.582 20.803 1.335 0.19112 1.1226 4.4534-0.38148 1.6292zm-262.8-9.3825c-1.2169-8.337 1.9782 3.9745 0 0zm51.901-7.5087c0.024487-15.202-10.225-29.715-25.965-31.267-13.076-5.667-27.803-2.286-41.495-5.6201-8.7419-0.30717-7.5232-16.185-0.95139-5.2272 11.656 8.158 26.638 6.2889 39.972 5.6855 17.997 0.07869 25.505 15.226 30.564 29.928 6.5374-9.9802 9.5601-22.787 16.252-28.44 3.772-3.3973 12.736-22.029 2.3701-16.692-5.2687 12.141-2.9057 2.6005 1.371-2.8898 13.692-2.2477-9.4755 29.234 3.1018 12.946 8.4761-8.9134 2.3531-27.649-9.7294-14.731-3.9511 3.9923-15.201 12.198-6.0131 2.8675 7.4097-12.265 28.137-9.8393 20.217 6.7508 1.3366 16.421-12.396 28.305-22.312 39.499-2.4083 0.36404-8.0887 15.544-7.3817 7.1906zm-52.685 2.1247c-3.5868-6.5456 2.3311 1.4509 0 0zm111.05-2.0497c-4.9833-9.1091 3.7672-29.065 9.8311-28.192-8.4686 6.6689-12.224 21.044-9.8311 28.192zm96.106-2.8714c-2.2563-7.8281-1.3331-10.075 0.26386-0.34674l0.13614 1.1941-0.39995-0.84729zm-210.04-0.57079c0.14607-8.2747-28.388-16.549-10.493-12.86 6.0729 1.3695 13.051 10.274 10.493 12.86zm35.998-0.47037c0.22693-1.3596 0.35786 1.6057 0 0zm-0.38394-4.6449c-1.0719-4.9474-14.856-16.842-3.478-7.5378 2.3185-0.78584 4.9808 11.087 3.478 7.5378zm172.59-3.9688c0.28371-2.2078 0.2837 2.2078 0 0zm57.431-1.3973c-0.69111-2.4957 4.3435 1.8362 0 0zm-85.539-2.2089c-5.8813-9.9309-12.255-23.505-8.0498-34.683 0.26069 5.6208 5.9117 20.808 8.1743 29.117-0.14898 0.53452 2.3891 8.7242-0.12456 5.5657zm-118.75-4.3958c-10.27-8.2686 3.6582-22.669 8.4052-21.886-11.546 3.9431-11.722 16.862-8.4052 21.886zm145.36 0.59815c15.724-9.9783 34.005-17.501 45.156-33.269-4.8998-7.9576-24.213 5.069-9.1493-4.6623-1.3837-5.1043 12.868 10.081 14.34-1.5632 8.137-8.734-12.221-12.667-18.486-11.526-16.646 0.576-28.581 15.186-38.383 25.97 10.644-15.344 28.358-30.348 48.287-27.073 7.6543 5.6818 14.869 7.4949 16.048-4.2403 2.6703-15.19 5.4009 3.1281 1.5054 8.0233-5.2047 5.6298 6.47 6.6639-3.6562 5.9558-6.9954 6.7933-11.298 13.86-1.3516 20.809-5.9307-5.6393-9.1814-12.538-15.45-2.1609-10.061 11.736-24.656 18.371-38.732 24.016l-0.12732-0.27896zm-187.98-5.324c-3.7656-8.7185-28.226-2.1283-9.4009-6.146 2.6457-2.8353 13.197 9.4273 9.4009 6.146zm183.26-1.2822c1.7021-6.2537 9.8444-18.065 13.351-17.179-5.1991 4.5654-13.648 14.523-13.351 17.179zm12.406-0.63408c1.8388-2.9667 2.5638-1.2891 0 0zm-146.79-1.4027c2.3155-4.0122-1.7798 4.2542 0 0zm120.8-4.7669c-1.1404-12.031 9.7418-27.57 16.138-31.712-8.1649 9.8218-14.265 21.643-15.532 34.48-0.38713 4.6478-0.9996-4.5809-0.60535-2.7674zm-188.84 3.9923c1.9722-0.30457-0.60654 0.6048 0 0zm217.6-0.18275c3.2928-2.4525 3.6625-0.9112 0 0zm7.4918-4.1741c3.7956-2.656-1.8848 2.5946 0 0zm3.5683-2.7984c3.1266-3.0477-2.0273 3.2523 0 0zm36.874-0.71764c-8.001-0.0225-16.004-8.6832-4.1149-2.8635 4.0739 1.8488 7.2621 1.3343 3.7768-0.64323 3.2588-0.6431 4.4761 5.1979 0.33811 3.5067zm-87.756-1.9651c0.69144-8.0742 2.2 1.2069 0 0zm53.033-2.8856c0.36214-3.0714 1.2693 0.5454 0 0zm-51.707-1.4993c0.87004-1.2567 0.42663 1.2898 0 0zm-126.67-1.0236c5.3719-3.2051 0.8847 1.4527 0 0zm144.99-2.416c7.4176-16.262 20.842-31.739 39.266-34.835 3.0213-0.18437-12.516 3.6626-15.614 8.5184-8.8631 7.218-20.362 19.48-23.652 26.316zm34.46-2.3502c-2.049-7.8446 13.467-15.474 2.9697-4.6379-0.99335 0.11636-3.2696 11.076-2.9697 4.6379zm-234.18-1.4894c-4.5364-0.16959-20.989-15.595-12.318-11.785 12.574 7.3702 27.272 15.031 41.934 8.3617 17.397 3.3042 22.162-16.473 34.379-24.213 1.9623-4.7914 14.004-15.324 5.3917-4.8647-8.4243 9.4698-17.26 18.171-24.104 28.465-14.794 4.3615-29.939 5.2751-45.283 4.0361zm208.74-17.062c2.2566-2.4539-0.55235 2.4555 0 0zm-103.09-2.4694c-1.4266-7.1596 1.2907 1.3414 0 0zm105.39 0.07664c3.0605-4.7463 19.812-13.778 7.6616-4.8588-2.6601 1.4585-5.1358 3.188-7.6616 4.8588zm-55.914-0.12523c3.4639-3.2452-0.87667-7.0958 2.7351-7.8567-0.14023 2.7659-0.9573 5.6873-2.7351 7.8567zm-132.65-1.2261c-12.159-5.2979-33.31 4.6868-37.623-13.016 1.5198 0.64931 10.734 13.707 17.796 9.0713-4.5199-1.5276-16.471-10.054-13.898-12.504 9.0594 11.778 25.776 13.604 39.542 15.408 7.0212-0.68934 17.594-18.179 5.0145-8.2264-14.043 7.4265 8.12-10.175 14.253-7.6468-5.7232 6.9119-12.722 20.023-25.085 16.914zm119.75-0.48918c3.5519-4.6627-9.1092-22.409-0.27704-14.314-0.89818 4.3937 4.0167 12.698 0.27704 14.314zm-38.193-4.8546c-4.2117-10.531-23.012-0.4675-24.938-2.1297 7.1467-4.7017 24.834-8.7763 24.938 2.1297zm71.049-3.7002c1.4557-8.9013 6.0166-10.133 1.5113-0.61732 0.39652 2.7703-3.7206 5.6142-1.5113 0.61732zm-154.49 1.4111c1.4537-1.5016 4.0513 1.2967 0 0zm-7.4744-0.98433c-1.0136-1.4351 4.2624 0.52499 0 0zm213.08-1.0441c1.2659-1.3431 0.43812 1.3908 0 0zm18.72-0.31581c1.784-2.2842 3.8105 0.93882 0 0zm5.798-1.0608c2.1694-2.1573 5.1222-0.45324 0 0zm4.9389-0.69687c5.1812-5.1536 13.516-2.0034 2.4694-0.39599l-1.9758 0.66338-0.49362-0.2674zm-91.599-3.1359c1.7752-7.0342-0.0806 7.1305 0 0z" fill="#6E6769"/></g><path d="m-61.272 278.56c3.7771-15.57 28.373-7.8104 33.465-24.521 4.202-5.0789 15.013-20.162 15.237-21.207-5.4064 12.682-13.837 28.188-22.629 35.354 8.5937-0.0603-11.166 7.8734-11.994 12.829-2.7436 1.9889-16.503 4.8598-14.079-2.4542zm2.4683-5.6966c-1.4843-2.5412-2.77 2.1398 0 0zm4.2767-1.3853c-6.4486-1.072-0.98138 1.981 0 0zm2.6335-0.41684c0.40152-2.0652-3.4211 1.9803 0 0zm8.0833 9.8109c10.467-13.856 31.019-19.232 35.096-37.903-0.14697 8.5709-13.305 20.642 0.15124 19.497 5.4631 10.812-8.3051 21.389-18.431 20.24h-18.466zm32.391 1.0249c3.3686-18.765 20.173 8.0336 0 0zm12.54-2.2784c-12.211-13.904 9.5075-30.04 0.56242-45.985 1.1821-10.088 2.8424 13.638 3.5562 17.002 0.93354 11.168 2.2638 23.536 10.629 31.874-4.6853-0.54394-12.057 2.6926-14.748-2.8905zm26.836 1.7417c-22.929-13.698-24.535-50.341-4.2755-67.12 6.3281-5.505 5.0345-13.533-1.0776-4.1118-3.5302 4.9848-14.205 19.617-5.15 6.5999 9.3842-7.9183 15.382-26.279 1.2951-30.054 14.602-0.34389 16.694 20.641 32.034 23.879 7.2253 3.587 10.688 4.297 1.915-0.90877-14.427-7.8903-17.507-24.123-23.128-37.983-2.9144-7.0182-5.1469-18.381 0.38624-16.685 12.711-4.2378 9.475 32.734 10.008 9.2029 0.48554-12.167 4.5872 19.868 3.5758 5.4424 6.3698 18.991 21.737-6.9684 34.835-4.3962 7.792-3.4741 23.265 0.68563 23.353-4.8032 3.7045 11.696 13.146 14.521 23.415 17.73 11.502-7.0437-2.7756-30.083 14.528-34.988 6.0382-4.9488-9.6057 4.4621 0.37379-2.3699 13.938-4.9537 0.74538-25.433 17.396-24.169 4.7393-2.1714-11.937 19.293 2.0555 19.27 5.7218-3.7252 7.8596-7.2861 5.6044 2.4519-7.2732 5.0317 1.3424 13.466-5.5711 18.749-0.63872-6.5277-4.823-17.093-5.651-4.3938-1.8718 7.3019 2.0394 13.847 7.9793 14.718-8.0872 1.3611-14.796-3.459-14.378 8.3574-0.3971 7.4535-7.3493 28.684-12.518 22.749 3.316-12.144 12.88-22.67 9.8477-35.987 2.8812-7.5422 4.2482-25.59 3.7124-27.061-8.5882 14.426-1.7119 32.655-10.752 46.672-1.7069 19.322-19.619 29.386-30.051 42.973-2.8679 5.1858-2.9362 14.163 0.0425 3.3573 5.0551-13.859 33.912-23.751 34.008-30.397 0.16939 19.583 14.918-3.5926 20.608-8.4298 5.3789-3.0757 13.669-21.366 11.852-17.599-8.8264 26.729-31.526 44.861-52.437 62.129-5.4699 16.278-25.632 19.376-35.238 32.386 6.9171-11.368 5.0397-25.508 7.5596-38.632 1.4489-15.841 22.264-16.378 24.63-31.879 2.4492-6.5656 0.67414-11.031-1.6636-1.6784-3.4455 7.6118 1.5327-12.103 7.4916-12.781-4.7171-1.1213-14.298-9.371-14.907 2.0886-5.4609 9.0515-12.504 16.384-22.686 10.549-9.0474 4.5594-29.108-4.5227-16.144-12.373 13.231-2.2653 25.585-2.7404 36.939 1.2255 7.07-11.688-16.598-7.3758-24.679-7.8725-10.424-0.21424-27.585 3.6558-29.881 5.969 2.4647 5.4911 7.648 11.477-0.01208 3.9818-1.4762 0.13538 9.0847 12.076 1.807 17.187 1.2009 8.9564 1.2396-6.7298 3.0088 2.3612 3.9563 6.2845 16.369 18.404 15.78 20.612-8.3523-10.703 4.0285-22.074 12.8-10.758 8.1582 13.546 3.2242 31.191-0.33976 45.499-4.5769 8.6018-14.95 33.151-25.202 18.341-4.3944-16.978-14.392-31.595-25.575-44.568-2.2961-9.328-8.7533-28.127-15.521-10.585-6.9101 8.0026-8.9217 23.626 5.0554 21.329 8.8015 12.377 18.383 23.45 30.694 32.627 8.8553 10.725-15.36 3.339-20.8 5.4857-2.1779-0.67206-5.2467 0.655-6.9526-1.3409zm40.943-15.416c3.631-15.108-7.0822-30.074-14.562-41.912-4.5418-4.287-26.588-16.731-11.845-5.9913 13.805 9.5813 25.401 25.326 24.074 42.692-9.8194-18.26 4.0632 26.043 2.3324 5.2116zm34.148-26.76c1.1089-6.861 0.36949-14.555-1.9084-3.4851-0.19106 2.4737 3.026 11.938 1.9084 3.4851zm-28.06-1.3094c0.87583-6.3846-3.0515 4.1681 0 0zm0.50402-3.5475c-0.19793-4.0223-3.4755 2.0285 0 0zm-0.40357-3.3682c-0.05243-6.6997-3.4529 2.85 0 0zm30.959-6.9193c5.0462-9.3144 0.97456-3.9182-1.4021 2.1052zm-5.7724-4.8525c10.205-7.445-6.2179-2.0484-2.4768 4.6491 0.90158-1.4636 0.94332-3.5699 2.4768-4.6491zm11.624-2.1173c2.2744-2.6151-4.2366 2.2389 0 0zm2.4218-7.0576c8.3177-1.5984 6.3534-13.198 1.0026-2.3686-3.0128 2.5914-7.7215 6.4181-1.0026 2.3686zm-63.374-5.8643c-3.8549-4.0766-16.747-15.021-7.7964-4.2726 3.7462-1.1391 12.25 11.74 7.7964 4.2726zm70.929-4.928c-1.1839-2.6229-0.87518 3.177 0 0zm8.1857-2.529c6.0188-5.5878 4.0106-20.246 1.8567-5.4619 0.1197 0.77831-5.5984 9.6508-1.8567 5.4619zm-7.8328-1.8034c1.6303-5.1553-1.0855-3.5396-0.52322 0.2498zm-67.709-3.8659c-6.5773-8.7152-6.3319-2.1516 0.67656 1.5181zm-14.515-0.98099c-1.2765-8.3183-2.9643 2.4573 0 0zm87.226-3.2236c4.543-4.2805 8.2585-16.724 1.9812-5.0352-2.0499 1.4304-8.6258 9.712-1.9812 5.0352zm-90.404-4.4339c-1.8946-5.3232-10.161-27.148-5.6673-10.527 0.34374 0.7109 7.5028 19.136 5.6673 10.527zm104.59-17.628c-4.7585-5.0372 4.6088-26.91-1.9035-11.326-1.6084 3.0044 1.8083 18.22 1.9035 11.326zm14.692-44.816c1.3855-5.1831-4.4604 4.4632 0 0zm-78.968 161.8c2.7947-7.1669 17.657-15.875 5.5886-4.1233-1.3711 0.90645-3.8758 7.082-5.5886 4.1233zm3.649-0.13982c10.511-13.892 21.123-27.965 36.214-36.398 1.3084-5.4301 12.058-14.474 6.3298-3.5168-7.5122 11.916-5.5374 32.043-9.787 41.025h-33.33l0.37117-0.71827zm12.119-12.052c4.7331-5.7439 10.457-13.072 1.7852-3.8184-0.54297 0.47584-5.7107 8.4585-1.7852 3.8184zm27.206 12.897c2.0871-20.366 20.42-30.595 33.582-42.268 6.3141-12.689 7.0578-30.128 17.552-39.554-6.0714 14.872-16.352 30.498-12.538 47.265 12.913 6.3599 12.6 23.425 22.56 32.609-14.411 5.5274-35.047 0.55088-51.693 2.126-3.1546-0.0409-6.3091-0.0984-9.463-0.17834zm75.631-2.0824c1.0811-8.9553 16.451-14.605 10.379-22.622-5e-3 6.9337 5.4407 25.746 10.913 10.373 0.1903-14.587-22.149-25.295-7.9942-40.27 1.2576-5.6214 11.933-23.874 12.277-19.079-9.0334 10.711-14.232 27.678-8.5034 40.939 5.5909 9.3805 15.211 23.953 8.6529 33.346-8.5668-0.45633-17.289-0.33908-25.944-0.33814zm13.293-34.214c-0.96913-8.8368-5.6773-10.348-2.3354-0.77602 0.14366 0.47336 1.8265 1.9452 2.3354 0.77602zm-23.95 32.143c-14.749-11.791-17.224-32.641-17.484-50.31 0.16799-7.251 1.7152-9.3116 0.87236-0.37083 2.0791 8.7263 4.7269 32.892 11.657 29.431-3.9589-11.197 3.9632-23.203-0.75146-34.148 9.8073 12.771-4.5673 36.926 15.776 42.908 7.309 5.8257-3.5212 15.087-10.07 12.489zm-66.384-1.6514c1.305-18.68 6.6518-37.72 18.634-52.448 7.4536 6.9461 23.944-18.384 12.234-0.51911-6.7397 2.5228-14.906 17.093-2.1617 9.2956 1.9887-1.7996-6.7844 14.373-11.054 18.192-7.6394 6.1676-16.496 21.632-17.652 25.479zm-64.421-2.7995c-12.089-10.363-28.5-22.541-26.676-40.399 3.8532-13.168 9.2575 10.664 15.433 12.724 6.7966 7.0986 15.499 21.949 12.771 29.32zm-58.72-11.246c5.7863-15.041 5.8523-1.3417 0 0zm-46.818-7.9364c-6.3013-1.7571-12.504-4.1478-2.5734-2.1597 2.9767 1.0406 10.263 4.078 2.5734 2.1597zm143.68-28.146c-0.19544-6.0405-10.422-21.162 3.0479-14.197 10.202-1.6341-5.8961 12.244-3.0479 14.197zm-122.61-1.4115c-0.61631-3.081 1.6917 3.8538 0 0zm21.164 0.61754c-0.24857-2.2539 1.483-0.5173 0 0zm-32.88-2.9995c-2.6113-4.6732-7.8357-10.226-0.54461-3.5797 0.27658-0.57149 1.4236 5.7512 0.54461 3.5797zm9.7469-1.1621c-0.69419-3.2417 1.3384 1.5863 0 0zm-29.124-2.151c7.5906-6.1814 9.6721-1.5931 0 0zm28.965-0.0687c0.30006-1.33 0.28204 1.6933 0 0zm201.34-2.2643c1.8885-8.0121-0.55982 4.9371 0 0zm-204.88-1.9884c-2.7808-4.4142 3.0822 3.3598 0 0zm205.58-1.364c0.79179-1.9398 0.33325 1.8895 0 0zm-207.2-1.996c-13.896-8.9305-1.9801-5.0921 0 0zm-9.8809-6.9119c-7.1199-0.22701-18.45-1.4227-5.087-1.487 0.20515-0.09 9.1281 2.2786 5.087 1.487zm221.65-2.5607c1.7077-5.3909 2.6279-4.0839 0.25484 0.0791zm-190.02-5.1708c-4.2427-6.2498-18.203-27.765-5.8598-11.777 2.2907 3.7386 4.3579 7.651 5.8598 11.777zm192.12 0.8328c1.192-1.7726-0.30101 1.4225 0 0zm-117.29-4.6604c0.48028-1.6152 0.09357 2.2516 0 0zm-27.744-1.3357c-4.4192-10.241-13.264-29.167-17.444-24.771 5.605-6.1148-3.4086-28.622-5.3212-11.383-2.437-4.1026 2.5591-15.623-5.9817-8.8652-3.2296-6.5678-2.1293-13.558 5.4466-9.6747 11.272-5.3844-5.978-33.524 8.9902-28.616 6.1299 2.9373 8.0677 17.353-1.6764 12.407-0.30244 12.302 1.7806 23.493 8.7812 34.098-4.3319 14.132 12.648 25.696 8.9061 38.422-0.5669-0.53908-1.1344-1.0783-1.7008-1.6172zm162.36-4.2026c2.6048-6.5622 12.245-8.5996 2.9636-1.7297 0.3091-0.33205-4.3063 3.8824-2.9636 1.7297zm-180.16-1.7217c-5.1509-5.7078-18.837-4.3218-17.565-14.824 0.91347 9.458 13.06 8.6984 17.565 14.824zm191.92-9.7813c6.1816-2.6844 9.0451-25.07 10.254-18.917-1.4318 6.9942-2.5045 16.071-10.254 18.917zm-209.94-6.6312c0.30005-1.3301 0.28208 1.6933 0 0zm-29.63-1.0886c-1.3931-1.76 0.89557-1.4533 0 0zm209.25 0.0593c-0.24858-2.2539 1.483-0.51731 0 0zm-179.97-2.1349c-0.13075-5.2922 0.93613 4.3981 0 0zm117.96 0.42142c0.82593-7.9529 2.8221 2.1163 0 0zm-148.84-2.589c-6.8132-3.0678-3.9579-28.682-3.3401-11.851-0.49857 0.72002 6.942 17.298 3.3401 11.851zm75.077-7.4362c-4.9023-10.589 0.66134 4.1289-7.2362-1.7179-11.716-14.032 13.093-3.5531 7.2362 1.7179zm43.059-1.2967c-2.8984-7.4463-20.667-5.9038-12.33-15.452 10.663-0.92123 19.995-1.3957 30.262-1.2974 10.09 5.0116 0.44364 13.749-6.6056 12.577-2.9491 3.0633-6.8458 6.1485-11.326 4.1719zm-56.392-3.5752c-4.3757-8.8474 5.4766-3.8184 0 0zm-3.6628-2.957c-5.6806-4.6646-3.0585-14.829 0.15912-3.8634-0.35135-0.48809 2.9369 7.2791-0.15912 3.8634zm84.153-1.6053c0.0989-9.1414 2.9989-9.0794 0 0zm108.99-4.3228c-2.859-4.5101-2.0589-8.6486 0.27373-0.94362zm-194.98-4.4096c-4.3962-6.6933-0.6932-4.2178 0 0zm-59.964 0.79267c0.67675-4.2736 2.2664-1.9264 0 0zm1.3875-3.8609c0.4066-2.0084 0.71662 1.2381 0 0zm249.68-0.70907c-2.0554-5.3345 2.3725 3.6974 0 0zm-160.75-1.0911c5.7007-3.7994-6.3716 0.58191 0.53303-5.2364 5.1095-6.7038 20.517-4.9753 6.8788 1.3055-4.0436 2.0288-1.1695 3.9669-7.4118 3.9309zm159.71-1.646c-0.3131-1.5438 1.1789 1.8316 0 0zm-152.21-1.0116c2.6691-1.897-1.3244 1.6814 0 0zm58.712-1.8569c-8.7823-5.6028 11.087-2.3412 9.9862-5.7527 12.467-5.7068 1.0943 6.6156-4.1558 4.8198-1.8692-1.2446-4.4473-0.97225-5.8304 0.93291zm-76.694-1.8577c-12.188 4.3356-10.157-23.932-13.44-11.105-8.8939-7.649-22.09-17.156-11.387-29.245 6.9702-13.144 22.523-18.258 29.593-31.129 0.13366-17.252 11.699-31.939 26.047-40.987 12.115-8.0415-8.9626 8.6594-12.166 11.196-12.36 10.206-10.141 27.503-18.784 39.586-7.2709 3.347-8.1006 28.729-8.0304 12.546-4.8513-6.0909-7.1541 15.135-8.2399 20.273-3.1574 7.5326-1.7651 14.16 4.6825 4.6372 2.5153-6.2199 11.906-7.7023 6.1337-14.408 11.063 10.918 23.409-3.7629 35.216 2.7659 11.32 12.358-5.3793 29.887-19.991 24.263-14.642-0.54742 3.9718 6.2216 4.8777 5.31-4.7294 3.3994-26.663-0.26483-11.536 6.3552-0.99168-0.0198-1.9853-0.04-2.9758-0.0596zm-16.811-43.198c6.4712-6.9484-0.47909-4.2614-1.8686 0.86959zm0.04156-3.992c7.0722-5.1298-3.9828 0.18885 0 0zm182.99 46.432c-2.6365-4.4192-0.39763-3.4182 0.41942 0.16216zm-93.571-1.8664c-12.254-2.676 12.395 0.39152 2.9269 0.2099l-2.9268-0.20988zm-86.298-3.9935c-4.2336-5.5939 3.4102 1.3522 0 0zm85.953-0.61616c-6.1562-5.1661-7.9051-7.3378-13.861-10.024-5.5015-3.3709-5.9798-0.91918-6.5151-9.2396-1.0147-3.4481-3.3802-12.482 3.1689-12.851 15.799 3.2034 29.447-11.672 30.983-26.523 3.6257-16.044 1.6234 15.943-5.4976 19.715-9.0895 9.7923 10.792 7.5847 6.1344 19.822 0.43809 12.17 1.7156 21.571-14.413 19.101zm23.848-2.3304c-12.493-8.1029-9.2433-25.331 1.328-31.631 2.9373-7.2258 18.677-17.911 20.075-17.3-12.748 4.9814-27.188 30.408-10.956 36.758 4.3806-5.3733 0.65108-20.104 3.575-16.14 0.54789-11.278 3.1543 11.442 3.3872 15.693 2.0196 8.3501 6.1454 10.513-4.8238 11.461-4.6619-0.82777-11.845-5.1143-10.872 1.5306-0.57086-0.12439-1.144-0.24766-1.7145-0.37223zm0.0931-4.1411c-0.51959-1.8936-1.1527 1.3494 0 0zm-175.14-2.4028c-5.9052-4.9675 1.8083-19.915-0.32864-5.8724-0.52011 0.98442 3.9209 11.392 0.32864 5.8724zm200.9 1.8904c1.1851-1.3064 1.3725 0.79765 0 0zm-209.62-2.3458c-2.9484-3.8328-10.04-16.848-1.8495-6.5473 0.55732 0.21594 4.2798 9.7828 1.8495 6.5473zm118.93 0.88484c4.1197-6.528-0.34682-25.95 8.3861-23.25-1.5045 7.842-0.6218 18.543-8.3861 23.25zm95.12-1.9465c13.632-4.7375 22.24-16.982 27.299-29.592-2.0458 13.96-10.786 26.815-25.635 28.723zm56.293-7.8977c-8.8584 0.15394-18.217-23.96-7.9354-8.1207 1.9342 2.607 7.8625 5.4709 7.9354 8.1207zm-283.22-6.3638c-1.8383-1.9993 4.0204 2.3408 0 0zm20.666-2.9946c0.4276-3.1244 0.37818 3.2367 0 0zm52.041-6.4479c0.91189-19.253-15.966-32.723-33.781-34.365-12.688-4.8152-34.752 5.1207-40.057-10.972 11.984 10.143 32.417 9.3175 48.99 9.5033 17.839-3.5265 20.412 25.629 28.72 26.595 3.8696-7.8993-1.2942 12.362-3.8713 9.2385zm137.47-2.9505c0.29999-1.3301 0.28216 1.6934 0 0zm59.519-1.7527c-2.2722-9.5133 2.2869 6.1259 0 0zm-253.5-1.598c-3.029-6.2766-25.897-14.942-8.0168-9.4628 3.3793 1.986 8.5233 4.8022 8.0168 9.4628zm193.28 0.49777c-2.471-4.9883 0.94371-0.04651 0 0zm59.638-3.146c0.3-1.3301 0.28217 1.6934 0 0zm1.333-2.8819c2.4116-3.9061-2.1863 5.8816 0 0zm0.75651-1.9971c4.7852-7.7365 11.145-0.05695 0 0zm-47.287-6.8894c19.813-10.581 41.04-22.224 52.246-42.466 1.7223-5.3066 9.9939-27.487 8.3175-9.8941-6.8506 15.93-20.472 28.36-33.953 38.935-8.1358 5.6273-17.178 10.382-26.61 13.425zm-18.219-15.903c-0.11924-8.8576 6.7516-20.345 11.969-24.603-4.9271 8.3558-12.214 19.836-12.036 27.99l0.0329-1.6856zm-18.26 0.70576c-5.307-5.4244-5.3207-28.75-2.4409-25.545-3.1458 8.5028 1.3214 17.148 2.4409 25.545zm-173.8-15.741c-8.0401-1.7645-20.515-18.358-5.4465-7.1256 14.401 9.0751 32.811 6.521 48.176 2.9927 5.1796-2.9965 15.978-21.288 8.8736-6.1225-11.218 12.829-30.539 10.284-45.9 10.623l-2.8554-0.14678zm203.49-1.6381c3.1194-9.5164 20.791-25.21 23.929-23.309-8.9244 6.6753-17.35 14.262-23.929 23.309zm-30.612-13.304c-5.0418-1.1224 3.842-5.0778 0 0zm-116.81-4.2125c1.1373-2.2585 1.904-0.29352 0 0zm116.81-0.61613c-0.62133-3.4607 5.4262-8.2859 1.7854-2.2688zm-114.46-1.4644c5.1283-3.4093 18.275-21.685 8.2546-6.9969-2.4557 2.5914-4.848 5.6381-8.2546 6.9969zm158.22-1.6843c2.9999-5.121 7.9817-3.3098 0 0zm-72.947-2.4503c0.37385-2.8583 0.15151 3.5036 0 0zm-20.745-0.52932c0.79208-1.3665 0.46458 1.338 0 0zm52.844-3.2667c3.0459-11.535 3.16-4.4009-0.0202 2.0257-0.76451 1.5409-1.6774-3.9354 0.0202-2.0257zm-51.953 1.3029c-1.3677-7.1616-0.49952-11.999 1.7211-2.5229 0.25305-0.62662-2.1812 5.5145-1.7211 2.5229zm107.8-0.15347c1.6482-1.7978 0.88956 1.2021 0 0zm-89.615-1.3745c-6.9001-13.455 2.5817-6.0201 0 0zm98.547-0.98386c1.9164-0.73451-0.15922 0.80878 0 0zm16.299-2.2086c4.5197-2.6723 13.668-4.0349 3.1226-0.58273z" fill="#3C3A3A" stroke-width=".35289"/></g></g></svg>
